<svg xmlns="http://www.w3.org/2000/svg" width="25.333" height="19.204" viewBox="0 0 25.333 19.204">
  <g id="seo-and-web" transform="translate(-11 -77)">
    <g id="Group_229" data-name="Group 229" transform="translate(11 77)">
      <path id="Path_857" data-name="Path 857" d="M32.924,87.118H30.473v-9.4a2.045,2.045,0,0,0-2.043-2.043H25.978V72.409A.409.409,0,0,0,25.57,72H15.763a.409.409,0,0,0-.409.409v3.269H12.9A2.045,2.045,0,0,0,10.86,77.72v9.4H8.409A.409.409,0,0,0,8,87.527v1.634A2.045,2.045,0,0,0,10.043,91.2H31.29a2.045,2.045,0,0,0,2.043-2.043V87.527A.409.409,0,0,0,32.924,87.118Zm-16.752-14.3h8.989V83.849H16.172ZM26.8,84.667a.409.409,0,1,0,0-.817h-.817V77.72H28.43v8.172H12.9V77.72h2.452v6.129h-.817a.409.409,0,1,0,0,.817ZM11.677,77.72A1.227,1.227,0,0,1,12.9,76.495h2.452V76.9h-2.86a.409.409,0,0,0-.409.409V86.3a.409.409,0,0,0,.409.409H28.838a.409.409,0,0,0,.409-.409V77.312a.409.409,0,0,0-.409-.409h-2.86v-.409H28.43a1.227,1.227,0,0,1,1.226,1.226v9.4H11.677ZM22.595,87.935l-.2.817H18.943l-.2-.817Zm9.921,1.226a1.227,1.227,0,0,1-1.226,1.226H10.043a1.227,1.227,0,0,1-1.226-1.226V87.935H17.9l.331,1.325a.409.409,0,0,0,.4.31h4.086a.409.409,0,0,0,.4-.309l.331-1.325h9.079Z" transform="translate(-8 -72)" fill="#fff"/>
      <path id="Path_860" data-name="Path 860" d="M176.409,98.452h7.355a.409.409,0,0,0,.409-.409V96.409a.409.409,0,0,0-.409-.409h-7.355a.409.409,0,0,0-.409.409v1.634A.409.409,0,0,0,176.409,98.452Zm.409-1.634h6.538v.817h-6.538Z" transform="translate(-167.419 -94.774)" fill="#fff"/>
      <path id="Path_862" data-name="Path 862" d="M176.409,176.817h7.355a.409.409,0,1,0,0-.817h-7.355a.409.409,0,0,0,0,.817Z" transform="translate(-167.419 -171.279)" fill="#fff"/>
      <path id="Path_863" data-name="Path 863" d="M176.409,200.817h3.269a.409.409,0,1,0,0-.817h-3.269a.409.409,0,1,0,0,.817Z" transform="translate(-167.419 -193.758)" fill="#fff"/>
      <path id="Path_864" data-name="Path 864" d="M264.817,200.817a.409.409,0,0,0,0-.817h-.409a.409.409,0,1,0,0,.817Z" transform="translate(-250.925 -193.758)" fill="#fff"/>
      <path id="Path_865" data-name="Path 865" d="M176.409,227.269h2.452a.409.409,0,0,0,.409-.409v-2.452a.409.409,0,0,0-.409-.409h-2.452a.409.409,0,0,0-.409.409v2.452A.409.409,0,0,0,176.409,227.269Zm.409-2.452h1.634v1.634h-1.634Z" transform="translate(-167.419 -216.237)" fill="#fff"/>
      <path id="Path_866" data-name="Path 866" d="M252.086,224h-3.677a.409.409,0,0,0,0,.817h3.677a.409.409,0,0,0,0-.817Z" transform="translate(-235.742 -216.237)" fill="#fff"/>
      <path id="Path_868" data-name="Path 868" d="M249.634,272h-1.226a.409.409,0,1,0,0,.817h1.226a.409.409,0,1,0,0-.817Z" transform="translate(-235.742 -262.376)" fill="#fff"/>
      <path id="Path_869" data-name="Path 869" d="M296.817,272h-.409a.409.409,0,0,0,0,.817h.409a.409.409,0,0,0,0-.817Z" transform="translate(-281.29 -262.376)" fill="#fff"/>
    </g>
  </g>
</svg>
