<svg xmlns="http://www.w3.org/2000/svg" width="24.711" height="20.239" viewBox="0 0 24.711 20.239">
  <g id="chat" transform="translate(-7.986 -49)">
    <path id="Path_870" data-name="Path 870" d="M304.632,269.178h-5.859a4.772,4.772,0,0,1-4.2-2.509,8.764,8.764,0,0,0,5.54-6.849,4.774,4.774,0,0,1,1.9,8.093Z" transform="translate(-272.333 -200.337)" fill="#10284b"/>
    <g id="Group_230" data-name="Group 230" transform="translate(7.986 49)">
      <path id="Path_871" data-name="Path 871" d="M32.471,68.483l-2.126-1.025a5.188,5.188,0,0,0,1.267-3.39,5.124,5.124,0,0,0-1.055-3.131,5.215,5.215,0,0,0-2.343-1.727,9.15,9.15,0,1,0-15.7,5.261l-4.3,2.073a.4.4,0,0,0,.173.756H19.125a9.11,9.11,0,0,0,2.934-.482,5.169,5.169,0,0,0,4.38,2.422H32.3a.4.4,0,0,0,.173-.756ZM19.125,66.5h-9l3.24-1.562a.4.4,0,0,0,.1-.651A8.354,8.354,0,1,1,19.125,66.5Zm7.314,1.939a4.374,4.374,0,0,1-3.624-1.922,9.183,9.183,0,0,0,5.268-6.509,4.376,4.376,0,0,1,1.322,7.272.4.4,0,0,0,.1.651l1.054.508Z" transform="translate(-7.986 -49)" fill="#fff"/>
      <path id="Path_872" data-name="Path 872" d="M137.945,193H128.4a.4.4,0,1,0,0,.8h9.548a.4.4,0,1,0,0-.8Z" transform="translate(-122.032 -185.839)" fill="#fff"/>
      <path id="Path_873" data-name="Path 873" d="M137.945,225H128.4a.4.4,0,1,0,0,.8h9.548a.4.4,0,1,0,0-.8Z" transform="translate(-122.032 -216.248)" fill="#fff"/>
      <path id="Path_874" data-name="Path 874" d="M133.763,257H127.4a.4.4,0,1,0,0,.8h6.365a.4.4,0,1,0,0-.8Z" transform="translate(-121.082 -246.657)" fill="#fff"/>
      <path id="Path_875" data-name="Path 875" d="M279.8,257h-.4a.4.4,0,1,0,0,.8h.4a.4.4,0,0,0,0-.8Z" transform="translate(-265.523 -246.657)" fill="#fff"/>
    </g>
  </g>
</svg>
