<svg xmlns="http://www.w3.org/2000/svg" width="15.999" height="19.199" viewBox="0 0 15.999 19.199">
  <g id="checklist" transform="translate(-0.001 0)">
    <path id="Path_887" data-name="Path 887" d="M.961,19.2H13.12a.96.96,0,0,0,.96-.96V3.2h1.28A.64.64,0,0,0,16,2.56V1.6A1.6,1.6,0,0,0,14.4,0H.961A.96.96,0,0,0,0,.96V18.239a.96.96,0,0,0,.96.96ZM14.4.64a.96.96,0,0,1,.96.96v.96H2.561V1.6A1.583,1.583,0,0,0,2.232.64ZM.641.96A.32.32,0,0,1,.961.64a.96.96,0,0,1,.96.96v.96a.64.64,0,0,0,.64.64H13.44V18.239a.32.32,0,0,1-.32.32H.961a.32.32,0,0,1-.32-.32Zm0,0" fill="#fff"/>
    <path id="Path_888" data-name="Path 888" d="M51.839,131.2h1.92a.64.64,0,0,0,.64-.64v-.32a.32.32,0,0,0-.64,0v.32h-1.92v-1.92h.96a.32.32,0,0,0,0-.64h-.96a.64.64,0,0,0-.64.64v1.92A.64.64,0,0,0,51.839,131.2Zm0,0" transform="translate(-49.279 -123.2)" fill="#fff"/>
    <path id="Path_889" data-name="Path 889" d="M51.839,250.665h1.92a.64.64,0,0,0,.64-.64v-1.92a.64.64,0,0,0-.64-.64h-1.92a.64.64,0,0,0-.64.64v1.92A.64.64,0,0,0,51.839,250.665Zm0-2.56h1.92v1.92h-1.92Zm0,0" transform="translate(-49.279 -238.185)" fill="#fff"/>
    <path id="Path_890" data-name="Path 890" d="M51.839,370.134h1.92a.64.64,0,0,0,.64-.64v-1.92a.64.64,0,0,0-.64-.64h-1.92a.64.64,0,0,0-.64.64v1.92A.64.64,0,0,0,51.839,370.134Zm0-2.56h1.92v1.92h-1.92Zm0,0" transform="translate(-49.279 -353.174)" fill="#fff"/>
    <path id="Path_891" data-name="Path 891" d="M162.453,145.707h1.6a.32.32,0,1,0,0-.64h-1.6a.32.32,0,1,0,0,.64Zm0,0" transform="translate(-156.052 -139.627)" fill="#fff"/>
    <path id="Path_892" data-name="Path 892" d="M239.254,145.707h3.2a.32.32,0,0,0,0-.64h-3.2a.32.32,0,0,0,0,.64Zm0,0" transform="translate(-229.973 -139.627)" fill="#fff"/>
    <path id="Path_893" data-name="Path 893" d="M162.453,179.84h3.2a.32.32,0,1,0,0-.64h-3.2a.32.32,0,1,0,0,.64Zm0,0" transform="translate(-156.052 -172.48)" fill="#fff"/>
    <path id="Path_894" data-name="Path 894" d="M283.522,179.2h-1.6a.32.32,0,0,0,0,.64h1.6a.32.32,0,0,0,0-.64Zm0,0" transform="translate(-271.042 -172.479)" fill="#fff"/>
    <path id="Path_895" data-name="Path 895" d="M162.453,265.176h1.6a.32.32,0,1,0,0-.64h-1.6a.32.32,0,1,0,0,.64Zm0,0" transform="translate(-156.052 -254.616)" fill="#fff"/>
    <path id="Path_896" data-name="Path 896" d="M242.454,264.535h-3.2a.32.32,0,0,0,0,.64h3.2a.32.32,0,0,0,0-.64Zm0,0" transform="translate(-229.974 -254.615)" fill="#fff"/>
    <path id="Path_897" data-name="Path 897" d="M162.453,299.308h3.2a.32.32,0,1,0,0-.64h-3.2a.32.32,0,1,0,0,.64Zm0,0" transform="translate(-156.052 -287.468)" fill="#fff"/>
    <path id="Path_898" data-name="Path 898" d="M283.522,298.668h-1.6a.32.32,0,0,0,0,.64h1.6a.32.32,0,0,0,0-.64Zm0,0" transform="translate(-271.042 -287.468)" fill="#fff"/>
    <path id="Path_899" data-name="Path 899" d="M162.453,384.64h1.6a.32.32,0,1,0,0-.64h-1.6a.32.32,0,1,0,0,.64Zm0,0" transform="translate(-156.052 -369.6)" fill="#fff"/>
    <path id="Path_900" data-name="Path 900" d="M242.454,384h-3.2a.32.32,0,0,0,0,.64h3.2a.32.32,0,0,0,0-.64Zm0,0" transform="translate(-229.974 -369.6)" fill="#fff"/>
    <path id="Path_901" data-name="Path 901" d="M162.453,418.773h3.2a.32.32,0,1,0,0-.64h-3.2a.32.32,0,1,0,0,.64Zm0,0" transform="translate(-156.052 -402.453)" fill="#fff"/>
    <path id="Path_902" data-name="Path 902" d="M283.522,418.133h-1.6a.32.32,0,0,0,0,.64h1.6a.32.32,0,0,0,0-.64Zm0,0" transform="translate(-271.042 -402.453)" fill="#fff"/>
    <path id="Path_903" data-name="Path 903" d="M77.447,112.65a.32.32,0,0,0-.452.452l.64.64a.32.32,0,0,0,.226.094h.027a.32.32,0,0,0,.234-.133l1.6-2.24a.32.32,0,1,0-.521-.372l-1.38,1.932Zm0,0" transform="translate(-74.021 -106.796)" fill="#fff"/>
  </g>
</svg>
