<svg id="code" xmlns="http://www.w3.org/2000/svg" width="20.103" height="17.852" viewBox="0 0 20.103 17.852">
  <path id="Path_232" data-name="Path 232" d="M117.479,185.338a.329.329,0,0,1-.215-.08l-2.148-1.841a.336.336,0,0,1,0-.509l2.148-1.841a.33.33,0,0,1,.468.038.336.336,0,0,1-.038.471l-1.851,1.586,1.851,1.586a.336.336,0,0,1,.038.471A.33.33,0,0,1,117.479,185.338Zm0,0" transform="translate(-109.547 -172.352)" fill="#000000"/>
  <path id="Path_233" data-name="Path 233" d="M250.04,185.338a.33.33,0,0,1-.253-.118.336.336,0,0,1,.037-.471l1.851-1.586-1.851-1.586a.335.335,0,0,1-.037-.471.33.33,0,0,1,.468-.038l2.148,1.841a.336.336,0,0,1,0,.509l-2.148,1.841A.329.329,0,0,1,250.04,185.338Zm0,0" transform="translate(-237.868 -172.352)" fill="#000000"/>
  <path id="Path_234" data-name="Path 234" d="M189.286,160.089a.333.333,0,0,1-.325-.4l1.339-6.4a.332.332,0,1,1,.65.138l-1.339,6.4A.332.332,0,0,1,189.286,160.089Zm0,0" transform="translate(-179.995 -145.722)" fill="#000000"/>
  <path id="Path_235" data-name="Path 235" d="M17.875,17.852H2.228A2.238,2.238,0,0,1,0,15.609V2.243A2.238,2.238,0,0,1,2.228,0H17.875A2.238,2.238,0,0,1,20.1,2.243V15.609A2.238,2.238,0,0,1,17.875,17.852ZM2.228.668A1.572,1.572,0,0,0,.664,2.243V15.609a1.572,1.572,0,0,0,1.565,1.575H17.875a1.572,1.572,0,0,0,1.565-1.575V2.243A1.572,1.572,0,0,0,17.875.668Zm0,0" transform="translate(0 0)" fill="#000000"/>
  <path id="Path_236" data-name="Path 236" d="M19.771,98.758H.332a.334.334,0,0,1,0-.668H19.771a.334.334,0,0,1,0,.668Zm0,0" transform="translate(0 -93.409)" fill="#000000"/>
  <path id="Path_237" data-name="Path 237" d="M98.5,36.4a1.057,1.057,0,1,1,1.05-1.057A1.055,1.055,0,0,1,98.5,36.4Zm0-1.446a.389.389,0,1,0,.387.389A.388.388,0,0,0,98.5,34.957Zm0,0" transform="translate(-92.829 -32.653)" fill="#000000"/>
  <path id="Path_238" data-name="Path 238" d="M30.437,36.189a1.057,1.057,0,1,1,1.05-1.057A1.055,1.055,0,0,1,30.437,36.189Zm0-1.446a.389.389,0,1,0,.387.389A.388.388,0,0,0,30.437,34.742Zm0,0" transform="translate(-27.993 -32.448)" fill="#000000"/>
  <path id="Path_239" data-name="Path 239" d="M166.566,36.618a1.057,1.057,0,1,1,1.05-1.057A1.055,1.055,0,0,1,166.566,36.618Zm0-1.446a.389.389,0,1,0,.387.389A.388.388,0,0,0,166.566,35.172Zm0,0" transform="translate(-157.668 -32.857)" fill="#000000"/>
</svg>
