<svg xmlns="http://www.w3.org/2000/svg" id="Resume" width="46.595" height="50.512" viewBox="0 0 46.595 50.512">
    <defs>
        <style>
            .cls-2{fill:#004fac}
        </style>
    </defs>
    <path id="Path_644" fill="#57a4ff" d="M219.137 105.527a9.563 9.563 0 0 1-3.244 7.188 6.792 6.792 0 0 0 .048-.8 6.389 6.389 0 0 0-6.391-6.39 3.194 3.194 0 0 0 3.162-2.739 2.872 2.872 0 0 0 .034-.457 3.2 3.2 0 1 0-6.392 0 2.875 2.875 0 0 0 .034.457 3.194 3.194 0 0 0 3.162 2.739 6.39 6.39 0 0 0-6.39 6.391 6.787 6.787 0 0 0 .048.8 9.589 9.589 0 1 1 15.928-7.188z" transform="translate(-186.271 -87.724)"/>
    <g id="Group_175">
        <path id="Path_645" d="M102.015 97.3l-.035-47.93a1.369 1.369 0 0 0-1.37-1.37H56.789a1.369 1.369 0 0 0-1.369 1.369V97.3zM58.158 50.739h41.083l.374 47.773H58.106zM55.419 97.3z" class="cls-2" transform="translate(-55.419 -48)"/>
        <path id="Path_646" d="M56.217 360h-6.848a1.369 1.369 0 0 0 0 2.739h6.847a1.369 1.369 0 0 0 0-2.739z" class="cls-2" transform="translate(-39.705 -317.509)"/>
        <path id="Path_647" d="M114.739 360h-1.369a1.369 1.369 0 0 0 0 2.739h1.369a1.369 1.369 0 0 0 0-2.739z" class="cls-2" transform="translate(-92.75 -317.509)"/>
        <path id="Path_648" d="M195.628 107.055a1.393 1.393 0 0 0 .184.159 10.923 10.923 0 0 0 14.275.007 1.378 1.378 0 0 0 .2-.177 10.955 10.955 0 1 0-14.663.011zm2.308-1.638v-.109a5.021 5.021 0 1 1 10.042 0v.109a8.191 8.191 0 0 1-10.042 0zm3.192-9.695a1.826 1.826 0 1 1 1.826 1.826 1.826 1.826 0 0 1-1.826-1.826zm1.826-5.021a8.211 8.211 0 0 1 7.3 11.979 7.8 7.8 0 0 0-3.652-4.218 4.565 4.565 0 1 0-7.3 0 7.8 7.8 0 0 0-3.652 4.218 8.211 8.211 0 0 1 7.3-11.979z" class="cls-2" transform="translate(-179.674 -81.115)"/>
        <path id="Path_649" d="M169.369 234.739h27.388a1.369 1.369 0 0 0 0-2.739h-27.388a1.369 1.369 0 0 0 0 2.739z" class="cls-2" transform="translate(-159.783 -200.503)"/>
        <path id="Path_650" d="M169.369 266.739h21.911a1.369 1.369 0 0 0 0-2.739h-21.911a1.369 1.369 0 0 0 0 2.739z" class="cls-2" transform="translate(-159.783 -227.026)"/>
    </g>
</svg>
