<svg id="Lock" xmlns="http://www.w3.org/2000/svg" width="12" height="22" viewBox="0 0 12 22">
  <path id="Path_548" data-name="Path 548" d="M26.588,24H16.706a.71.71,0,0,0-.706.71V36.774a.71.71,0,0,0,.706.71h9.882a.71.71,0,0,0,.706-.71V24.71A.71.71,0,0,0,26.588,24Zm-5.319,9.9a1.78,1.78,0,0,1-.328-3.364V27.9a.706.706,0,1,1,1.412,0v2.629A1.777,1.777,0,0,1,21.269,33.9Z" transform="translate(-15.647 -15.839)" fill="#10284b"/>
  <g id="Group_164" data-name="Group 164">
    <path id="Path_549" data-name="Path 549" d="M25.941,8.806H17.118V5.613a3.882,3.882,0,1,1,7.765,0,.353.353,0,1,0,.706,0,4.588,4.588,0,1,0-9.176,0V8.806h-.353A1.062,1.062,0,0,0,15,9.871V21.935A1.062,1.062,0,0,0,16.059,23h9.882A1.062,1.062,0,0,0,27,21.935V9.871A1.062,1.062,0,0,0,25.941,8.806Zm.353,13.129a.354.354,0,0,1-.353.355H16.059a.354.354,0,0,1-.353-.355V9.871a.354.354,0,0,1,.353-.355h9.882a.354.354,0,0,1,.353.355Z" transform="translate(-15 -1)" fill="#fff"/>
    <path id="Path_550" data-name="Path 550" d="M29.169,35.477V33.065a1.059,1.059,0,1,0-2.118,0v2.413a2.133,2.133,0,0,0,.609,3.927,2.2,2.2,0,0,0,.446.047,2.131,2.131,0,0,0,1.062-3.974ZM29,38.423a1.41,1.41,0,0,1-2.28-.846,1.436,1.436,0,0,1,.827-1.561.355.355,0,0,0,.21-.321V33.065a.353.353,0,1,1,.706,0v2.629a.355.355,0,0,0,.21.324,1.431,1.431,0,0,1,.849,1.3,1.416,1.416,0,0,1-.522,1.1Z" transform="translate(-22.11 -21)" fill="#fff"/>
    <path id="Path_551" data-name="Path 551" d="M21.176,58H18.353a.355.355,0,0,0,0,.71h2.824a.355.355,0,0,0,0-.71Z" transform="translate(-16.941 -37.774)" fill="#fff"/>
    <path id="Path_552" data-name="Path 552" d="M29.706,58h-.353a.355.355,0,0,0,0,.71h.353a.355.355,0,0,0,0-.71Z" transform="translate(-24.059 -37.774)" fill="#fff"/>
  </g>
</svg>
