<svg xmlns="http://www.w3.org/2000/svg" width="19" height="19" viewBox="0 0 19 19">
  <g id="Power_button" data-name="Power button" transform="translate(-1 -1)">
    <circle id="Ellipse_42" data-name="Ellipse 42" cx="5.5" cy="5.5" r="5.5" transform="translate(5 5)" fill="#000"/>
    <g id="Group_222" data-name="Group 222" transform="translate(1 1)">
      <path id="Path_826" data-name="Path 826" d="M10.5,1A9.5,9.5,0,1,0,20,10.5,9.5,9.5,0,0,0,10.5,1Zm0,18.387A8.887,8.887,0,1,1,19.387,10.5,8.887,8.887,0,0,1,10.5,19.387Z" transform="translate(-1 -1)" fill="#fff"/>
      <path id="Path_827" data-name="Path 827" d="M21.445,15.09a.306.306,0,1,0-.215.574,4.9,4.9,0,1,1-3.466.013.307.307,0,1,0-.219-.573,5.516,5.516,0,1,0,3.9-.014Z" transform="translate(-10.014 -10.758)" fill="#fff"/>
      <path id="Path_828" data-name="Path 828" d="M31.306,16.823a.306.306,0,0,0,.306-.306v-5.21a.306.306,0,1,0-.613,0v5.21A.306.306,0,0,0,31.306,16.823Z" transform="translate(-21.806 -7.935)" fill="#fff"/>
    </g>
  </g>
</svg>
