<svg xmlns="http://www.w3.org/2000/svg" width="325.936" height="635" viewBox="0 0 325.936 635">
    <defs>
        <style>
            .cls-2{fill:#fff;}
        </style>
    </defs>
    <g id="pattern1" opacity="0.6" transform="translate(.133)">
        <path id="Path_212" d="M101.595 600.8l-53.448 77.474-.687-.473 53.44-77.481z" class="cls-2" transform="translate(-3.431 -43.274)"/>
        <path id="Path_213" d="M47.546 678.545l-.835.1-8.611-70.473.835-.1z" class="cls-2" transform="translate(-2.756 -43.833)"/>
        <path id="Path_214" d="M100.652 600.965l-62.059 7.006-.093-.845 62.059-7z" class="cls-2" transform="translate(-2.785 -43.26)"/>
        <path id="Rectangle_32" d="M0 0H196.087V0.835H0z" class="cls-2" transform="rotate(-55.11 558.188 248.054)"/>
        <path id="Rectangle_33" d="M0 0H161.801V0.835H0z" class="cls-2" transform="rotate(-71.95 432.521 211.494)"/>
        <path id="Rectangle_34" d="M0 0H89.479V0.844H0z" class="cls-2" transform="rotate(-22.18 1145.5 52.468)"/>
        <path id="Path_215" d="M68.258 471.336L38.927 598.348l-.817-.185L67.441 471.15z" class="cls-2" transform="translate(-2.757 -33.963)"/>
        <path id="Rectangle_35" d="M0 0H198.565V0.835H0z" class="cls-2" transform="rotate(-84.01 374.379 292.954)"/>
        <path id="Path_216" d="M103.255 591.137l-.807.223L69.72 471.353l.817-.223z" class="cls-2" transform="translate(-5.035 -33.961)"/>
        <path id="Path_217" d="M110.9 338.85L70.528 461.817l-.8-.26L110.1 338.59z" class="cls-2" transform="translate(-5.036 -24.407)"/>
        <path id="Path_218" d="M156.492 427.675l-.761.362-42.471-89.145.761-.362z" class="cls-2" transform="translate(-8.174 -24.403)"/>
        <path id="Rectangle_36" d="M0 0H142.333V0.835H0z" class="cls-2" transform="rotate(-34.51 557.595 -12.526)"/>
        <path id="Rectangle_37" d="M0 0H185.574V0.835H0z" class="cls-2" transform="rotate(-66.23 382.935 88.594)"/>
        <path id="Rectangle_38" d="M0 0H136.784V0.835H0z" class="cls-2" transform="rotate(-41.67 417.652 -175.6)"/>
        <path id="Path_219" d="M342.988 152.582l-102.7 92.29-.566-.622 102.711-92.29z" class="cls-2" transform="translate(-17.29 -10.954)"/>
        <path id="Rectangle_39" d="M0 0H0.844V75.022H0z" class="cls-2" transform="rotate(-72.13 208.432 -114.965)"/>
        <path id="Rectangle_40" d="M0 0H0.835V74.976H0z" class="cls-2" transform="rotate(-71 210.141 -118.628)"/>
        <path id="Path_220" d="M271.705 127.573L240.4 242.894l-.807-.213L270.9 127.35z" class="cls-2" transform="translate(-17.28 -9.18)"/>
        <path id="Path_221" d="M269.66 88.23l3.4 36.449.835-.074-3.359-36.049z" class="cls-2" transform="translate(-19.448 -6.36)"/>
        <path id="Path_222" d="M164.371 49.147l-.807-.3-3.814 5.9.705.455z" class="cls-2" transform="translate(-11.525 -3.521)"/>
        <path id="Rectangle_41" d="M0 0H0.835V124.832H0z" class="cls-2" transform="rotate(-57.42 121.342 -109.737)"/>
        <path id="Rectangle_42" d="M0 0H0.835V198.36H0z" class="cls-2" transform="rotate(-63.06 116.425 -95.02)"/>
        <path id="Rectangle_43" d="M0 0H0.835V198.537H0z" class="cls-2" transform="rotate(-62.65 116.773 -95.977)"/>
        <path id="Path_223" d="M234.621 237.439l-.779.315L159.72 55.6l.77-.315z" class="cls-2" transform="translate(-11.523 -3.985)"/>
        <path id="Rectangle_44" d="M0 0H126.623V0.835H0z" class="cls-2" transform="rotate(-60.54 181.213 7.146)"/>
        <path id="Path_224" d="M260.831 127.847l-167.758 43.4-.213-.807 167.758-43.41z" class="cls-2" transform="translate(-6.703 -9.157)"/>
        <path id="Rectangle_45" d="M0 0H0.844V154.247H0z" class="cls-2" transform="rotate(-62.25 177.235 9.806)"/>
        <path id="Path_225" d="M112.564 326.813l-.835.1L92.53 174.291l.826-.111z" class="cls-2" transform="translate(-6.68 -12.556)"/>
        <path id="Path_226" d="M171.059 51.814l-1.234-.464-9.845 3.405.278.8z" class="cls-2" transform="translate(-11.542 -3.702)"/>
        <path id="Path_227" d="M286.8 94.977l-.789-.3-12.661 30.262.77.325z" class="cls-2" transform="translate(-19.714 -6.825)"/>
        <path id="Path_228" d="M100.157 25.35L92.52 163.489l.844.046 7.618-137.879z" class="cls-2" transform="translate(-6.679 -1.827)"/>
        <path id="Path_229" d="M151.22 44.14l7.934 10.745.668-.5-7.173-9.706z" class="cls-2" transform="translate(-10.91 -3.182)"/>
        <path id="Path_230" d="M197.2 61.26l70.772 61.753.557-.631-69.1-60.3z" class="cls-2" transform="translate(-14.225 -4.416)"/>
        <path id="Path_231" d="M157.24 46.38l2.283 8.528.807-.223-2.125-7.943z" class="cls-2" transform="translate(-11.344 -3.343)"/>
        <path id="Path_232" d="M31.109.3l-.817-.3L.07 45.449l.705.464z" class="cls-2" transform="translate(-.015)"/>
        <path id="Path_233" d="M54.966 9.862l-.975-.362L.2 46.013l.464.7z" class="cls-2" transform="translate(-.024 -.685)"/>
        <path id="Rectangle_46" d="M0 0H0.835V144.319H0z" class="cls-2" transform="rotate(-36.54 69.625 22.922)"/>
        <path id="Path_234" d="M148.637 54.551l-.037.835L.43 49.614l.037-.844z" class="cls-2" transform="translate(-.041 -3.516)"/>
        <path id="Path_235" d="M25.082 140.974l-.817.213L.01 49.323l.817-.213z" class="cls-2" transform="translate(-.01 -3.54)"/>
        <path id="Path_236" d="M81.419 19.728l-.789-.288-54.45 119.33.761.343z" class="cls-2" transform="translate(-1.897 -1.401)"/>
        <path id="Path_237" d="M88.331 171.944l-.306.779-61.595-24.144.3-.779z" class="cls-2" transform="translate(-1.915 -10.654)"/>
        <path id="Path_238" d="M150.727 55.767L26.8 141.849l-.464-.687 123.9-86.083z" class="cls-2" transform="translate(-1.908 -3.97)"/>
        <path id="Path_239" d="M224.806 243.887l-.362.752L26.39 148.572l.371-.752z" class="cls-2" transform="translate(-1.912 -10.656)"/>
        <path id="Path_240" d="M107.744 324.807l-.761.353L26.18 148.383l.761-.353z" class="cls-2" transform="translate(-1.897 -10.671)"/>
        <path id="Rectangle_47" d="M0 0H115.748V0.844H0z" class="cls-2" transform="rotate(-87.6 141.735 116.46)"/>
        <path id="Rectangle_48" d="M0 0H0.835V208.419H0z" class="cls-2" transform="rotate(-5.42 482.982 24.27)"/>
        <path id="Rectangle_49" d="M0 0H113.066V0.844H0z" class="cls-2" transform="rotate(-54.04 257.886 107.385)"/>
        <path id="Path_241" d="M224.3 252.136L21.444 271.724l-.084-.835 202.861-19.579z" class="cls-2" transform="translate(-1.549 -18.116)"/>
        <path id="Path_242" d="M107.241 333.612l-.492.677-85.609-61.122.492-.677z" class="cls-2" transform="translate(-1.533 -19.642)"/>
        <path id="Rectangle_50" d="M0 0H0.835V189.564H0z" class="cls-2" transform="rotate(-13.75 1060.07 45.718)"/>
        <path id="Rectangle_51" d="M0 0H0.835V197.451H0z" class="cls-2" transform="rotate(-40.45 353.675 100.168)"/>
        <path id="Path_243" d="M269.821 302.8l-.492.677L92.71 174.557l.492-.677z" class="cls-2" transform="translate(-6.693 -12.534)"/>
        <path id="Rectangle_52" d="M0 0H0.844V172.546H0z" class="cls-2" transform="rotate(-2.98 2399.81 -4813.585)"/>
        <path id="Rectangle_53" d="M0 0H161.856V0.835H0z" class="cls-2" transform="rotate(-67.28 349.634 -52.038)"/>
        <path id="Rectangle_54" d="M0 0H160.381V0.844H0z" class="cls-2" transform="rotate(-67.25 349.59 -52.144)"/>
        <path id="Path_244" d="M280.506 308.483l-.687.482-40.169-56.983.687-.483z" class="cls-2" transform="translate(-17.285 -18.129)"/>
        <path id="Path_245" d="M271.141 313.555l-157.42 23.708-.121-.826 157.421-23.717z" class="cls-2" transform="translate(-8.198 -22.542)"/>
        <path id="Path_246" d="M274.655 313.453L159.714 426.306l-.594-.6L274.07 312.85z" class="cls-2" transform="translate(-11.48 -22.552)"/>
        <path id="Rectangle_55" d="M0 0H185.017V0.844H0z" class="cls-2" transform="rotate(-55.6 499.259 71.687)"/>
        <path id="Path_247" d="M235.4 251.871l-64.323 209.672-.807-.241 64.323-209.672z" class="cls-2" transform="translate(-12.283 -18.139)"/>
        <path id="Rectangle_56" d="M0 0H0.835V139.41H0z" class="cls-2" transform="rotate(-22.35 848.468 -108.587)"/>
        <path id="Path_248" d="M163.478 476.8l-.046.835-93.3-6 .056-.835z" class="cls-2" transform="translate(-5.065 -33.938)"/>
        <path id="Path_249" d="M170.265 474.506l-.807.213L159 434.893l.817-.213z" class="cls-2" transform="translate(-11.471 -31.334)"/>
        <path id="Rectangle_57" d="M0 0H172.286V0.835H0z" class="cls-2" transform="rotate(-44.62 704.965 238.783)"/>
        <path id="Rectangle_58" d="M0 0H129.101V0.844H0z" class="cls-2" transform="rotate(-62.03 512.078 197.572)"/>
        <path id="Path_250" d="M160.523 478.1l-131.244 3.568-.019-.844 131.24-3.564z" class="cls-2" transform="translate(-2.119 -34.403)"/>
        <path id="Path_251" d="M29.088 466.5l-.835.028-7.3-193.656.835-.028z" class="cls-2" transform="translate(-1.52 -19.668)"/>
        <path id="Rectangle_59" d="M0 0H153.941V0.835H0z" class="cls-2" transform="rotate(-59.42 404.753 199.844)"/>
        <path id="Rectangle_60" d="M0 0H39.13V0.844H0z" class="cls-2" transform="rotate(-14.07 1815.86 112.438)"/>
        <path id="Rectangle_61" d="M0 0H128.34V0.835H0z" class="cls-2" transform="rotate(-19.76 1295.154 145.63)"/>
        <path id="Rectangle_62" d="M0 0H0.844V117.762H0z" class="cls-2" transform="rotate(-4.03 6363.932 -159.116)"/>
        <path id="Path_252" d="M46.877 669.431l-.835.084L28.82 481.584l.835-.074z" class="cls-2" transform="translate(-2.087 -34.71)"/>
        <path id="Rectangle_63" d="M0 0H0.834V130.94H0z" class="cls-2" transform="rotate(-32.75 773.094 178.712)"/>
    </g>
</svg>
