<svg xmlns="http://www.w3.org/2000/svg" width="419.641" height="505.694" viewBox="0 0 419.641 505.694">
    <defs>
        <style>
            .cls-2{fill:#fff;}
        </style>
    </defs>
    <g id="pattern2" opacity="0.6">
        <path id="Path_253" d="M271.22 50.17l24.261 137.339.848-.139-24.087-136.387z" class="cls-2" transform="translate(43.917 8.124)"/>
        <path id="Path_254" d="M327.721 91.09l-35.6 89.561.8.325 35.52-89.329z" class="cls-2" transform="translate(47.301 14.75)"/>
        <path id="Rectangle_64" d="M0 0H0.871V141.278H0z" class="cls-2" transform="rotate(-2.91 4020.175 -6582.65)"/>
        <path id="Path_255" d="M299.161 289.962l-.651 1.371-.79-.372.651-1.371z" class="cls-2" transform="translate(48.208 46.892)"/>
        <path id="Rectangle_65" d="M0 0H0.871V142.626H0z" class="cls-2" transform="rotate(-2.72 4288.818 -7047.06)"/>
        <path id="Rectangle_66" d="M0 0H0.871V77.489H0z" class="cls-2" transform="rotate(-62.47 388.178 -77.434)"/>
        <path id="Path_256" d="M308.509 294.214l-.383.778-69.356-34.474.4-.779z" class="cls-2" transform="translate(38.663 42.058)"/>
        <path id="Path_257" d="M301.561 168.562l-62.2 106.618-.744-.43 62.186-106.63z" class="cls-2" transform="translate(38.638 27.223)"/>
        <path id="Path_258" d="M108.56 373.886l-58.9 71.237-.66-.545 58.886-71.238z" class="cls-2" transform="translate(7.934 60.453)"/>
        <path id="Rectangle_67" d="M0 0H208.484V0.871H0z" class="cls-2" transform="rotate(-39.24 666.293 54.306)"/>
        <path id="Path_259" d="M100.448 396.12l-.848-.174 35.88-161.066.848.186z" class="cls-2" transform="translate(16.128 38.033)"/>
        <path id="Rectangle_68" d="M0 0H0.871V128.939H0z" class="cls-2" transform="rotate(-76.92 248.088 41.077)"/>
        <path id="Rectangle_69" d="M0 0H0.871V204.894H0z" class="cls-2" transform="rotate(-71.49 265.896 31.19)"/>
        <path id="Rectangle_70" d="M0 0H0.871V205.08H0z" class="cls-2" transform="rotate(-71.92 264.37 32.028)"/>
        <path id="Path_260" d="M318.827 168.773l-187.79 77.442-.337-.8 187.79-77.455z" class="cls-2" transform="translate(21.163 27.197)"/>
        <path id="Path_261" d="M131.327 252.629l-.837-.244 35.962-125.755.837.244z" class="cls-2" transform="translate(21.129 20.504)"/>
        <path id="Rectangle_71" d="M0 0H0.871V178.983H0z" class="cls-2" transform="rotate(-30.05 368.374 -275.624)"/>
        <path id="Rectangle_72" d="M0 0H0.871V159.323H0z" class="cls-2" transform="rotate(-72.36 194.88 -54.6)"/>
        <path id="Path_262" d="M284.07 46.9l-.709-.558L161.58 139.41l.523.686z" class="cls-2" transform="translate(26.164 7.504)"/>
        <path id="Rectangle_73" d="M0 0H0.86V170.489H0z" class="cls-2" transform="rotate(-25.45 680.727 -199.22)"/>
        <path id="Path_263" d="M209.182 367.931L100 375.066l-.046-.871 109.174-7.134z" class="cls-2" transform="translate(16.184 59.436)"/>
        <path id="Rectangle_74" d="M0 0H185.455V0.871H0z" class="cls-2" transform="rotate(-25 1167.281 123.698)"/>
        <path id="Path_264" d="M246.678 260.267l-52.286 124.744-.8-.337 52.3-124.744z" class="cls-2" transform="translate(31.347 42.089)"/>
        <path id="Path_265" d="M315.211 291.327l-120.98 88.887-.511-.7L314.7 290.63z" class="cls-2" transform="translate(31.368 47.06)"/>
        <path id="Rectangle_75" d="M0 0H151.468V0.871H0z" class="cls-2" transform="rotate(-36.58 757.763 -127.186)"/>
        <path id="Path_266" d="M217.024 386.812l-.569.662L53.1 246.382l.569-.662z" class="cls-2" transform="translate(8.598 39.788)"/>
        <path id="Path_267" d="M179.731 127.071L53.709 265.642l-.639-.581L179.092 126.49z" class="cls-2" transform="translate(8.593 20.482)"/>
        <path id="Rectangle_76" d="M0 0H90.955V0.871H0z" class="cls-2" transform="rotate(-8.11 2044.002 -294.023)"/>
        <path id="Rectangle_77" d="M0 0H0.871V157.813H0z" class="cls-2" transform="rotate(-20.08 838.454 -30.894)"/>
        <path id="Path_268" d="M49.781 465.476l-.871-.012L53.627 246l.871.012z" class="cls-2" transform="translate(7.92 39.833)"/>
        <path id="Rectangle_78" d="M0 0H0.871V216.269H0z" class="cls-2" transform="rotate(-85.66 185.394 109.721)"/>
        <path id="Path_269" d="M62.3 246.318L.742 319.658.08 319.1l61.559-73.34z" class="cls-2" transform="translate(.013 39.794)"/>
        <path id="Rectangle_79" d="M0 0H174.382V0.871H0z" class="cls-2" transform="rotate(-29.62 678.959 179.063)"/>
        <path id="Path_270" d="M116.362 383.7l-.465.732L.17 309.532l.465-.732z" class="cls-2" transform="translate(.028 50.002)"/>
        <path id="Path_271" d="M57.663 455.115l-.8.314L.02 309.294l.813-.314z" class="cls-2" transform="translate(.003 50.031)"/>
        <path id="Path_272" d="M.848 335.836L0 335.662 39.982 144.63l.837.174z" class="cls-2" transform="translate(0 23.419)"/>
        <path id="Path_273" d="M56.837 262.343l-.848.151L34.4 144.791l.86-.151z" class="cls-2" transform="translate(5.57 23.421)"/>
        <path id="Rectangle_80" d="M0 0H149.063V0.86H0z" class="cls-2" transform="rotate(-8.05 1211.832 -202.831)"/>
        <path id="Path_274" d="M146.739 249.305l-.593.627L34.52 145.069l.581-.639z" class="cls-2" transform="translate(5.59 23.387)"/>
        <path id="Path_275" d="M120.2 103.205l-85.192 48.72-.418-.755 85.181-48.719z" class="cls-2" transform="translate(5.601 16.589)"/>
        <path id="Path_276" d="M117.417 102.954l-63.6 166.422-.817-.314 63.6-166.422z" class="cls-2" transform="translate(8.582 16.62)"/>
        <path id="Path_277" d="M170.7 130.28l-.349.79-62.411-27.84.349-.79z" class="cls-2" transform="translate(17.478 16.587)"/>
        <path id="Path_278" d="M135.014 256.3l-.848.151-26.446-153.59.86-.151z" class="cls-2" transform="translate(17.442 16.631)"/>
        <path id="Rectangle_81" d="M0 0H0.871V227.365H0z" class="cls-2" transform="rotate(-70.43 147.618 -28.955)"/>
        <path id="Path_279" d="M291.288 45.907l-.8-.627-182.528 66.392.29.825z" class="cls-2" transform="translate(17.481 7.332)"/>
        <path id="Rectangle_82" d="M0 0H119.562V0.871H0z" class="cls-2" transform="rotate(-46.94 199.806 -84.701)"/>
        <path id="Rectangle_83" d="M0 0H215.27V0.86H0z" class="cls-2" transform="rotate(-39.2 255.732 27.54)"/>
        <path id="Rectangle_84" d="M0 0H116.785V0.871H0z" class="cls-2" transform="rotate(-80.57 180.643 -37.075)"/>
        <path id="Rectangle_85" d="M0 0H0.871V210.506H0z" class="cls-2" transform="rotate(-39.15 149.056 -274.618)"/>
        <path id="Path_280" d="M275.091 45.019l-1.418-1.127-95.254-16.662-.139.848z" class="cls-2" transform="translate(28.868 4.409)"/>
        <path id="Path_281" d="M221.536 6.009l-.736-.569-42.65 25.376.442.744z" class="cls-2" transform="translate(28.847 .881)"/>
        <path id="Path_282" d="M247.5 23.8l-1-.79-68.19 4.89.07.871z" class="cls-2" transform="translate(28.873 3.726)"/>
        <path id="Rectangle_86" d="M0 0H0.871V225.855H0z" class="cls-2" transform="rotate(-80.68 180.936 -36.804)"/>
        <path id="Rectangle_87" d="M0 0H178.228V0.871H0z" class="cls-2" transform="rotate(-41.61 535.929 -214.008)"/>
        <path id="Path_283" d="M363.067 158.4l-64.545 154.207-.8-.325 64.543-154.222z" class="cls-2" transform="translate(48.208 25.594)"/>
        <path id="Rectangle_88" d="M0 0H165.656V0.871H0z" class="cls-2" transform="rotate(-67.3 425.833 -92.01)"/>
        <path id="Rectangle_89" d="M0 0H72.016V0.871H0z" class="cls-2" transform="rotate(-9.38 1358.898 -1972.957)"/>
        <path id="Path_284" d="M279.41 56.67l85.866 118.237.709-.511L281.943 58.68z" class="cls-2" transform="translate(45.243 9.176)"/>
        <path id="Path_285" d="M353.18 115.23l.07 49.939h.871l-.07-49.254z" class="cls-2" transform="translate(57.188 18.659)"/>
        <path id="Path_286" d="M361.674 121.04l-8.424 43.107.848.163 8.343-42.666z" class="cls-2" transform="translate(57.2 19.599)"/>
        <path id="Path_287" d="M336.678 97.2l-44.548 82.415.767.418 44.467-82.287z" class="cls-2" transform="translate(47.303 15.739)"/>
        <path id="Path_288" d="M213.552.546l-.7-.546-34.762 31.744.581.639z" class="cls-2" transform="translate(28.837)"/>
    </g>
</svg>
