<svg id="setting" xmlns="http://www.w3.org/2000/svg" width="20" height="20" viewBox="0 0 20 20">
  <g id="Group_216" data-name="Group 216" transform="translate(0 0.323)">
    <path id="Path_814" data-name="Path 814" d="M35.355,26.968V24.387H33.312a7.694,7.694,0,0,0-1.324-3.2l1.445-1.445-1.825-1.825-1.445,1.445a7.694,7.694,0,0,0-3.2-1.324V16H24.387v2.043a7.694,7.694,0,0,0-3.2,1.324l-1.445-1.445-1.825,1.825,1.445,1.445a7.694,7.694,0,0,0-1.324,3.2H16v2.581h2.043a7.694,7.694,0,0,0,1.324,3.2l-1.445,1.445,1.825,1.825,1.445-1.445a7.694,7.694,0,0,0,3.2,1.324v2.043h2.581V33.312a7.694,7.694,0,0,0,3.2-1.324l1.445,1.445,1.825-1.825-1.445-1.445a7.694,7.694,0,0,0,1.324-3.2Zm-8.387,4.7-1.29.136a6.123,6.123,0,1,1,1.29-.136Z" transform="translate(-16 -16)" fill="#10284b"/>
    <path id="Path_815" data-name="Path 815" d="M257.29,404.62a6.131,6.131,0,0,1-1.29.136Z" transform="translate(-246 -388.95)" fill="#10284b"/>
  </g>
  <g id="Group_217" data-name="Group 217" transform="translate(0)">
    <path id="Path_816" data-name="Path 816" d="M27.677,16.387H25.9a8.087,8.087,0,0,0-1.174-2.834L25.983,12.3a.323.323,0,0,0,0-.456l-1.825-1.825a.323.323,0,0,0-.456,0l-1.255,1.255A8.087,8.087,0,0,0,19.613,10.1V8.323A.323.323,0,0,0,19.29,8H16.71a.323.323,0,0,0-.323.323V10.1a8.087,8.087,0,0,0-2.834,1.174L12.3,10.017a.323.323,0,0,0-.456,0l-1.825,1.825a.323.323,0,0,0,0,.456l1.255,1.255A8.087,8.087,0,0,0,10.1,16.387H8.323A.323.323,0,0,0,8,16.71V19.29a.323.323,0,0,0,.323.323H10.1a8.087,8.087,0,0,0,1.174,2.834L10.017,23.7a.323.323,0,0,0,0,.456l1.825,1.825a.323.323,0,0,0,.456,0l1.255-1.255A8.087,8.087,0,0,0,16.387,25.9v1.775A.323.323,0,0,0,16.71,28H19.29a.323.323,0,0,0,.323-.323V25.9a8.087,8.087,0,0,0,2.834-1.174L23.7,25.983a.323.323,0,0,0,.456,0l1.825-1.825a.323.323,0,0,0,0-.456l-1.255-1.255A8.087,8.087,0,0,0,25.9,19.613h1.775A.323.323,0,0,0,28,19.29V16.71A.323.323,0,0,0,27.677,16.387Zm-.323,2.581H25.634a.323.323,0,0,0-.318.269A7.431,7.431,0,0,1,24.048,22.3a.322.322,0,0,0,.035.415L25.3,23.931,23.931,25.3l-1.217-1.217a.323.323,0,0,0-.415-.035,7.431,7.431,0,0,1-3.062,1.268.323.323,0,0,0-.269.318v1.721H17.032V25.634a.323.323,0,0,0-.269-.318A7.431,7.431,0,0,1,13.7,24.048a.323.323,0,0,0-.415.035L12.069,25.3,10.7,23.931l1.217-1.217a.322.322,0,0,0,.035-.415,7.431,7.431,0,0,1-1.268-3.062.323.323,0,0,0-.318-.269H8.645V17.032h1.721a.323.323,0,0,0,.318-.269A7.431,7.431,0,0,1,11.952,13.7a.322.322,0,0,0-.035-.415L10.7,12.069,12.069,10.7l1.217,1.217a.323.323,0,0,0,.415.035,7.431,7.431,0,0,1,3.062-1.268.323.323,0,0,0,.269-.318V8.645h1.935v1.721a.323.323,0,0,0,.269.318A7.431,7.431,0,0,1,22.3,11.952a.323.323,0,0,0,.415-.035L23.931,10.7,25.3,12.069l-1.217,1.217a.322.322,0,0,0-.035.415,7.431,7.431,0,0,1,1.268,3.062.323.323,0,0,0,.318.269h1.721Z" transform="translate(-8 -8)" fill="#fff"/>
    <path id="Path_817" data-name="Path 817" d="M102.452,96a6.452,6.452,0,1,0,1.353,12.761h0A6.452,6.452,0,0,0,102.452,96Zm1.147,7.473a.323.323,0,0,0-.179.289v4.415a5.893,5.893,0,0,1-1.734.031h-.01l-.131-.019-.027,0-.035-.006v-4.415a.323.323,0,0,0-.179-.289,2.581,2.581,0,0,1-.144-4.548v2.235a.324.324,0,0,0,.144.269l.968.645a.323.323,0,0,0,.358,0l.968-.645a.324.324,0,0,0,.144-.269V98.926a2.581,2.581,0,0,1-.144,4.548Zm3.35,2.652a5.836,5.836,0,0,1-2.884,1.906v-4.075a3.227,3.227,0,0,0-.537-5.836.323.323,0,0,0-.43.3v2.565l-.645.43-.645-.43V98.423a.323.323,0,0,0-.43-.3,3.227,3.227,0,0,0-.538,5.836v4.075a5.807,5.807,0,1,1,6.11-1.906Z" transform="translate(-92.452 -92.452)" fill="#fff"/>
    <path id="Path_818" data-name="Path 818" d="M33.613,248h-1.29a.323.323,0,1,0,0,.645h1.29a.323.323,0,1,0,0-.645Z" transform="translate(-31.032 -238.323)" fill="#fff"/>
    <path id="Path_819" data-name="Path 819" d="M248.323,274.9a.323.323,0,0,0,.323-.323v-2.258a.323.323,0,0,0-.645,0v2.258A.323.323,0,0,0,248.323,274.9Z" transform="translate(-238.323 -261.355)" fill="#fff"/>
    <path id="Path_820" data-name="Path 820" d="M248.323,352.968a.323.323,0,0,0,.323-.323v-.323a.323.323,0,0,0-.645,0v.323A.323.323,0,0,0,248.323,352.968Z" transform="translate(-238.323 -338.129)" fill="#fff"/>
  </g>
</svg>
