<svg id="Smartphone" xmlns="http://www.w3.org/2000/svg" width="13.049" height="26" viewBox="0 0 13.049 26">
  <path id="Path_423" data-name="Path 423" d="M198.141,18l-.384,2.1h-5.373L192,18Z" transform="translate(-188.546 -17.476)" fill="#000000"/>
  <path id="Path_424" data-name="Path 424" d="M198.141,18l-.384,2.1h-5.373L192,18Z" transform="translate(-188.546 -17.476)" fill="#000"/>
  <g id="Group_156" data-name="Group 156">
    <path id="Path_425" data-name="Path 425" d="M131.13,8h-9.211A2.016,2.016,0,0,0,120,10.1V31.9a2.016,2.016,0,0,0,1.919,2.1h9.211a2.016,2.016,0,0,0,1.919-2.1V10.1A2.016,2.016,0,0,0,131.13,8Zm-2,.839L128.9,10.1h-4.744l-.23-1.258ZM132.281,31.9a1.21,1.21,0,0,1-1.151,1.258h-9.211a1.21,1.21,0,0,1-1.151-1.258V10.1a1.21,1.21,0,0,1,1.151-1.258h1.22l.322,1.76a.394.394,0,0,0,.376.337h5.373a.394.394,0,0,0,.376-.337l.322-1.76h1.22a1.21,1.21,0,0,1,1.151,1.258Z" transform="translate(-120 -8)" fill="#000000"/>
    <path id="Path_426" data-name="Path 426" d="M154.686,456h-2.3a.421.421,0,0,0,0,.839h2.3a.421.421,0,0,0,0-.839Z" transform="translate(-150.465 -432.516)" fill="#000000"/>
    <path id="Path_427" data-name="Path 427" d="M224.768,456h-.384a.421.421,0,0,0,0,.839h.384a.421.421,0,0,0,0-.839Z" transform="translate(-219.011 -432.516)" fill="#000000"/>
  </g>
</svg>
