<svg xmlns="http://www.w3.org/2000/svg" width="18.038" height="18.038" viewBox="0 0 18.038 18.038">
  <g id="world" transform="translate(0 -0.001)">
    <g id="Group_194" data-name="Group 194" transform="translate(12.987 16.173)">
      <g id="Group_193" data-name="Group 193">
        <path id="Path_787" data-name="Path 787" d="M369.3,459.212a.352.352,0,0,0-.482-.128l-.014.008a.352.352,0,1,0,.354.609l.014-.008A.352.352,0,0,0,369.3,459.212Z" transform="translate(-368.63 -459.036)" fill="#000000"/>
      </g>
    </g>
    <g id="Group_196" data-name="Group 196" transform="translate(0 0.001)">
      <g id="Group_195" data-name="Group 195">
        <path id="Path_788" data-name="Path 788" d="M16.83,4.513A9.017,9.017,0,0,0,.311,6.688,9.018,9.018,0,0,0,12.247,17.443a.352.352,0,0,0-.253-.658,8.259,8.259,0,0,1-7.947-1.092l.316-1.648L4.514,14a1.1,1.1,0,0,0,.7-1.381l-.112-.343a.389.389,0,0,1,0-.243,1.1,1.1,0,0,0-.831-1.417l-.8-.155L1.946,9.29a.352.352,0,0,0-.322-.055l-.9.292a8.305,8.305,0,0,1,0-.962c.035.033.059.055.073.07a.369.369,0,0,0,.344.176,5.117,5.117,0,0,0,.631-.072c.3-.044.593-.093.6-.094A.352.352,0,0,0,2.6,8.1l-.432-.634.619-.442a.353.353,0,0,0,.1-.111l.959-1.674.387-.414a1.488,1.488,0,0,0,.287-1.578A1.62,1.62,0,0,0,3.88,2.49,8.3,8.3,0,0,1,8.925.712L8.3,1.5l-2.333.818a.352.352,0,0,0-.209.2L5.1,4.1a.352.352,0,0,0,.039.339l.952,1.333a3.348,3.348,0,0,0-.427.53c-.069.1-.135.192-.18.244l-.118.134a3.3,3.3,0,0,0-.567.786,2.1,2.1,0,0,0,.174,2.122,1.977,1.977,0,0,0,1.867.8,2.743,2.743,0,0,0,.344-.069c.3-.075.4-.082.495.008.047.044.051.052.051.2a1.369,1.369,0,0,0,.031.349,1.113,1.113,0,0,0,.3.486.789.789,0,0,1,.128.163.877.877,0,0,1-.043.729l-.027.084a1.977,1.977,0,0,0,.259,1.414c.064.14.124.272.163.389.317.94.554,1.155.745,1.242a.734.734,0,0,0,.307.065,1.97,1.97,0,0,0,1.281-.77,1.083,1.083,0,0,0,.218-.513.562.562,0,0,1,.045-.157.923.923,0,0,1,.116-.149,1.222,1.222,0,0,0,.288-.479A.775.775,0,0,1,11.779,13l.078-.083a1.13,1.13,0,0,0,.22-1.314c-.108-.347.081-.57.536-.994a3.805,3.805,0,0,0,.559-.6.761.761,0,0,0,.149-.706c-.127-.3-.451-.345-.712-.385a1.167,1.167,0,0,1-.307-.072,1.665,1.665,0,0,1-.48-.728c-.026-.057-.051-.114-.077-.169-.046-.1-.092-.216-.14-.342a2.955,2.955,0,0,0-.521-.97,2.25,2.25,0,0,0-1.011-.449c-.124-.034-.242-.065-.319-.094a.352.352,0,0,0-.2-.013.914.914,0,0,0-.376.155.438.438,0,0,0-.125.169,4.029,4.029,0,0,1-.415-.253l-.007,0A.5.5,0,0,0,8.6,5.813c-.2-.416-.85-.384-.979-.373-.073.006-.166.009-.264.013-.154.005-.324.012-.492.03l.009-.024a.9.9,0,0,1,.846-.6h.2a.352.352,0,1,0,0-.7h-.2a1.608,1.608,0,0,0-1.364.761l-.525-.736.517-1.253,2.28-.8a.352.352,0,0,0,.159-.113L9.8.748A8.308,8.308,0,0,1,16.22,4.865a8.221,8.221,0,0,1,.83,2.016l-.149.133a.941.941,0,0,0-.314.684s0,.006,0,.008l-.243-.669a.879.879,0,0,0-.159-.272l-.434-.508a.883.883,0,0,0-.672-.31h-.531a.51.51,0,0,0-.425.793l.054.081a3.9,3.9,0,0,1-1.163.691l-.728-1.395V5.807a.352.352,0,0,0-.109-.255l-.656-.626a.353.353,0,0,0-.126-.078l-.59-.207a.352.352,0,1,0-.234.665l.519.182.492.47v.247a.352.352,0,0,0,.04.163l.912,1.746a.352.352,0,0,0,.434.167l.265-.1a4.61,4.61,0,0,0,1.653-1.058.352.352,0,0,0,.044-.445l-.019-.028h.168a.179.179,0,0,1,.137.063l.434.508a.179.179,0,0,1,.032.055L16.16,8.6a.352.352,0,0,0,.58.129l.228-.228a1.1,1.1,0,0,0,.291-.53,8.342,8.342,0,0,1-3.1,7.587.352.352,0,0,0,.435.554,9.018,9.018,0,0,0,2.232-11.6ZM1.666,9.962l1.453,1.1a.352.352,0,0,0,.146.065l.876.171a.391.391,0,0,1,.3.506,1.089,1.089,0,0,0,0,.68l.112.343a.392.392,0,0,1-.251.493l-.35.114a.352.352,0,0,0-.237.269l-.282,1.471a8.4,8.4,0,0,1-1.6-2A8.268,8.268,0,0,1,.8,10.244ZM3.719,4.343,3.3,4.787a.354.354,0,0,0-.048.065L2.316,6.5l-.836.6a.352.352,0,0,0-.086.485l.313.459c-.18.027-.342.049-.45.061l-.065-.061C1.108,7.96.991,7.856.818,7.7A8.327,8.327,0,0,1,3.3,2.992a.916.916,0,0,1,.571.523A.782.782,0,0,1,3.719,4.343ZM6.592,6.268a2.259,2.259,0,0,1,.788-.111c.107,0,.208-.007.3-.015a.958.958,0,0,1,.15,0,.352.352,0,0,0,.162.438c.066.035.158.1.255.162a2.03,2.03,0,0,0,.881.41.585.585,0,0,0,.479-.2l.015-.015a.377.377,0,0,0,.094-.115l.176.049a2.346,2.346,0,0,1,.683.252,2.5,2.5,0,0,1,.376.74c.053.137.1.266.159.386.024.051.048.1.072.158a2.2,2.2,0,0,0,.738,1.029,1.456,1.456,0,0,0,.586.179l.077.012a3.407,3.407,0,0,1-.447.469c-.436.406-.979.912-.729,1.718.118.381.123.422-.066.628l-.073.078a1.448,1.448,0,0,0-.4.644.55.55,0,0,1-.143.224,1.573,1.573,0,0,0-.2.261,1.142,1.142,0,0,0-.127.374.431.431,0,0,1-.074.207,2.054,2.054,0,0,1-.445.393.581.581,0,0,1-.3.118,2.513,2.513,0,0,1-.38-.827c-.051-.151-.121-.306-.189-.456a1.51,1.51,0,0,1-.23-.906l.026-.081a1.539,1.539,0,0,0,.024-1.22,1.27,1.27,0,0,0-.256-.365.655.655,0,0,1-.135-.179.761.761,0,0,1-.012-.178.874.874,0,0,0-.273-.721,1.135,1.135,0,0,0-1.145-.178,2.21,2.21,0,0,1-.257.054,1.266,1.266,0,0,1-1.213-.513,1.4,1.4,0,0,1-.109-1.41,2.675,2.675,0,0,1,.456-.619L6.017,7c.069-.079.144-.186.224-.3A2.547,2.547,0,0,1,6.592,6.268Z" transform="translate(0 -0.001)" fill="#000000"/>
      </g>
    </g>
    <g id="Group_198" data-name="Group 198" transform="translate(12.336 11.229)">
      <g id="Group_197" data-name="Group 197">
        <path id="Path_789" data-name="Path 789" d="M352.259,319.612l-.169-.639a.352.352,0,0,0-.65-.078c-.039.071-.073.147-.107.219a1.516,1.516,0,0,1-.176.319.778.778,0,0,1-.207.123.969.969,0,0,0-.587.57,1.032,1.032,0,0,0-.023.5.321.321,0,0,1-.009.208l0,.008a1.186,1.186,0,0,0-.028,1.169.734.734,0,0,0,.6.374.566.566,0,0,0,.094-.008c.359-.059.63-.432.85-1.176l.414-1.4A.352.352,0,0,0,352.259,319.612ZM351.167,321a2.136,2.136,0,0,1-.27.635l-.021-.029c-.067-.1.033-.332.1-.488l0-.008a.991.991,0,0,0,.058-.587.369.369,0,0,1,0-.183c.014-.044.1-.087.221-.147.055-.027.116-.056.177-.091Z" transform="translate(-350.15 -318.712)" fill="#000000"/>
      </g>
    </g>
    <g id="Group_200" data-name="Group 200" transform="translate(9.021 4.16)">
      <g id="Group_199" data-name="Group 199">
        <path id="Path_790" data-name="Path 790" d="M256.536,118.087l-.024-.008a.352.352,0,0,0-.233.665l.024.008a.352.352,0,1,0,.233-.665Z" transform="translate(-256.044 -118.059)" fill="#000000"/>
      </g>
    </g>
  </g>
</svg>
