<svg id="logo" xmlns="http://www.w3.org/2000/svg" xmlns:xlink="http://www.w3.org/1999/xlink" width="145.049" height="310.792" viewBox="0 0 145.049 310.792">
  <defs>
    <linearGradient id="linear-gradient" y1="0.5" x2="1" y2="0.5" gradientUnits="objectBoundingBox">
      <stop offset="0" stop-color="#cba539"/>
      <stop offset="0.49" stop-color="#ede7a6"/>
      <stop offset="0.61" stop-color="#ece5a3"/>
      <stop offset="0.71" stop-color="#e9df99"/>
      <stop offset="0.79" stop-color="#e4d589"/>
      <stop offset="0.87" stop-color="#ddc772"/>
      <stop offset="0.94" stop-color="#d4b654"/>
      <stop offset="1" stop-color="#cba539"/>
    </linearGradient>
    <linearGradient id="linear-gradient-6" x1="0" y1="0.5" x2="1.001" y2="0.5" xlink:href="#linear-gradient"/>
    <linearGradient id="linear-gradient-17" x1="0" y1="0.5" x2="1" y2="0.5" xlink:href="#linear-gradient"/>
    <linearGradient id="linear-gradient-20" x1="0" y1="0.5" x2="1" y2="0.5" xlink:href="#linear-gradient"/>
    <linearGradient id="linear-gradient-33" x1="0" y1="0.5" x2="1" y2="0.5" xlink:href="#linear-gradient"/>
    <linearGradient id="linear-gradient-35" x1="0" y1="0.5" x2="1" y2="0.5" xlink:href="#linear-gradient"/>
    <linearGradient id="linear-gradient-36" x1="0" y1="0.5" x2="1" y2="0.5" xlink:href="#linear-gradient"/>
    <linearGradient id="linear-gradient-39" x1="0" y1="0.5" x2="1" y2="0.5" xlink:href="#linear-gradient"/>
    <linearGradient id="linear-gradient-40" x1="0" y1="0.5" x2="1.002" y2="0.5" xlink:href="#linear-gradient"/>
  </defs>
  <g id="_Group_" data-name="&lt;Group&gt;">
    <g id="_Group_2" data-name="&lt;Group&gt;" transform="translate(136.39 113.301)">
      <g id="_Group_3" data-name="&lt;Group&gt;">
        <ellipse id="_Path_" data-name="&lt;Path&gt;" cx="4.329" cy="4.295" rx="4.329" ry="4.295" fill="url(#linear-gradient)"/>
      </g>
    </g>
    <g id="_Group_4" data-name="&lt;Group&gt;" transform="translate(90.503 54.436)">
      <g id="_Group_5" data-name="&lt;Group&gt;">
        <ellipse id="_Path_2" data-name="&lt;Path&gt;" cx="4.329" cy="4.295" rx="4.329" ry="4.295" fill="url(#linear-gradient)"/>
      </g>
    </g>
    <g id="_Group_6" data-name="&lt;Group&gt;" transform="translate(103.088 49.442)">
      <g id="_Group_7" data-name="&lt;Group&gt;">
        <ellipse id="_Path_3" data-name="&lt;Path&gt;" cx="4.329" cy="4.295" rx="4.329" ry="4.295" fill="url(#linear-gradient)"/>
      </g>
    </g>
    <g id="_Group_8" data-name="&lt;Group&gt;" transform="translate(100.523 20.569)">
      <g id="_Group_9" data-name="&lt;Group&gt;">
        <ellipse id="_Path_4" data-name="&lt;Path&gt;" cx="3.464" cy="3.436" rx="3.464" ry="3.436" fill="url(#linear-gradient)"/>
      </g>
    </g>
    <g id="_Group_10" data-name="&lt;Group&gt;" transform="translate(115.823 83.6)">
      <g id="_Group_11" data-name="&lt;Group&gt;">
        <ellipse id="_Path_5" data-name="&lt;Path&gt;" cx="4.329" cy="4.295" rx="4.329" ry="4.295" fill="url(#linear-gradient)"/>
      </g>
    </g>
    <g id="_Group_12" data-name="&lt;Group&gt;" transform="translate(133.334 84.117)">
      <g id="_Group_13" data-name="&lt;Group&gt;">
        <ellipse id="_Path_6" data-name="&lt;Path&gt;" cx="3.464" cy="3.436" rx="3.464" ry="3.436" fill="url(#linear-gradient-6)"/>
      </g>
    </g>
    <g id="_Group_14" data-name="&lt;Group&gt;" transform="translate(87.579 9.063)">
      <g id="_Group_15" data-name="&lt;Group&gt;">
        <ellipse id="_Path_7" data-name="&lt;Path&gt;" cx="4.329" cy="4.295" rx="4.329" ry="4.295" fill="url(#linear-gradient)"/>
      </g>
    </g>
    <g id="_Group_16" data-name="&lt;Group&gt;" transform="translate(118.444)">
      <g id="_Group_17" data-name="&lt;Group&gt;">
        <ellipse id="_Path_8" data-name="&lt;Path&gt;" cx="4.329" cy="4.295" rx="4.329" ry="4.295" fill="url(#linear-gradient)"/>
      </g>
    </g>
    <g id="_Group_18" data-name="&lt;Group&gt;" transform="translate(130.953 14.534)">
      <g id="_Group_19" data-name="&lt;Group&gt;">
        <ellipse id="_Path_9" data-name="&lt;Path&gt;" cx="4.329" cy="4.295" rx="4.329" ry="4.295" fill="url(#linear-gradient)"/>
      </g>
    </g>
    <g id="_Group_20" data-name="&lt;Group&gt;" transform="translate(118.501 18.781)">
      <g id="_Group_21" data-name="&lt;Group&gt;">
        <ellipse id="_Path_10" data-name="&lt;Path&gt;" cx="4.329" cy="4.295" rx="4.329" ry="4.295" fill="url(#linear-gradient)"/>
      </g>
    </g>
    <g id="_Group_22" data-name="&lt;Group&gt;" transform="translate(125.919 37.476)">
      <g id="_Group_23" data-name="&lt;Group&gt;">
        <ellipse id="_Path_11" data-name="&lt;Path&gt;" cx="4.329" cy="4.295" rx="4.329" ry="4.295" fill="url(#linear-gradient)"/>
      </g>
    </g>
    <g id="_Group_24" data-name="&lt;Group&gt;" transform="translate(91.288 97.556)">
      <g id="_Group_25" data-name="&lt;Group&gt;">
        <ellipse id="_Path_12" data-name="&lt;Path&gt;" cx="4.329" cy="4.295" rx="4.329" ry="4.295" fill="url(#linear-gradient)"/>
      </g>
    </g>
    <g id="_Group_26" data-name="&lt;Group&gt;" transform="translate(47.99 106.862)">
      <g id="_Group_27" data-name="&lt;Group&gt;">
        <ellipse id="_Path_13" data-name="&lt;Path&gt;" cx="4.329" cy="4.295" rx="4.329" ry="4.295" fill="url(#linear-gradient)"/>
      </g>
    </g>
    <g id="_Group_28" data-name="&lt;Group&gt;" transform="translate(19.629 136.349)">
      <g id="_Group_29" data-name="&lt;Group&gt;">
        <ellipse id="_Path_14" data-name="&lt;Path&gt;" cx="3.464" cy="3.436" rx="3.464" ry="3.436" fill="url(#linear-gradient)"/>
      </g>
    </g>
    <g id="_Group_30" data-name="&lt;Group&gt;" transform="translate(0 163.406)">
      <g id="_Group_31" data-name="&lt;Group&gt;">
        <ellipse id="_Path_15" data-name="&lt;Path&gt;" cx="4.329" cy="4.295" rx="4.329" ry="4.295" fill="url(#linear-gradient)"/>
      </g>
    </g>
    <g id="_Group_32" data-name="&lt;Group&gt;" transform="translate(53.761 162.332)">
      <g id="_Group_33" data-name="&lt;Group&gt;">
        <ellipse id="_Path_16" data-name="&lt;Path&gt;" cx="4.329" cy="4.295" rx="4.329" ry="4.295" fill="url(#linear-gradient)"/>
      </g>
    </g>
    <g id="_Group_34" data-name="&lt;Group&gt;" transform="translate(92.408 168.093)">
      <g id="_Group_35" data-name="&lt;Group&gt;">
        <ellipse id="_Path_17" data-name="&lt;Path&gt;" cx="4.293" cy="4.259" rx="4.293" ry="4.259" fill="url(#linear-gradient-17)"/>
      </g>
    </g>
    <g id="_Group_36" data-name="&lt;Group&gt;" transform="translate(45.767 189.675)">
      <g id="_Group_37" data-name="&lt;Group&gt;">
        <ellipse id="_Path_18" data-name="&lt;Path&gt;" cx="3.464" cy="3.436" rx="3.464" ry="3.436" fill="url(#linear-gradient)"/>
      </g>
    </g>
    <g id="_Group_38" data-name="&lt;Group&gt;" transform="translate(78.775 174.81)">
      <g id="_Group_39" data-name="&lt;Group&gt;">
        <ellipse id="_Path_19" data-name="&lt;Path&gt;" cx="4.329" cy="4.295" rx="4.329" ry="4.295" fill="url(#linear-gradient)"/>
      </g>
    </g>
    <g id="_Group_40" data-name="&lt;Group&gt;" transform="translate(26.021 195.056)">
      <g id="_Group_41" data-name="&lt;Group&gt;">
        <ellipse id="_Path_20" data-name="&lt;Path&gt;" cx="4.329" cy="4.295" rx="4.329" ry="4.295" fill="url(#linear-gradient-20)"/>
      </g>
    </g>
    <g id="_Group_42" data-name="&lt;Group&gt;" transform="translate(114.643 225.742)">
      <g id="_Group_43" data-name="&lt;Group&gt;">
        <ellipse id="_Path_21" data-name="&lt;Path&gt;" cx="4.329" cy="4.295" rx="4.329" ry="4.295" fill="url(#linear-gradient)"/>
      </g>
    </g>
    <g id="_Group_44" data-name="&lt;Group&gt;" transform="translate(83.825 215.658)">
      <g id="_Group_45" data-name="&lt;Group&gt;">
        <ellipse id="_Path_22" data-name="&lt;Path&gt;" cx="4.329" cy="4.295" rx="4.329" ry="4.295" fill="url(#linear-gradient)"/>
      </g>
    </g>
    <g id="_Group_46" data-name="&lt;Group&gt;" transform="translate(84.756 302.201)">
      <g id="_Group_47" data-name="&lt;Group&gt;">
        <ellipse id="_Path_23" data-name="&lt;Path&gt;" cx="4.329" cy="4.295" rx="4.329" ry="4.295" fill="url(#linear-gradient-17)"/>
      </g>
    </g>
    <g id="_Group_48" data-name="&lt;Group&gt;" transform="translate(108.501 302.201)">
      <g id="_Group_49" data-name="&lt;Group&gt;">
        <ellipse id="_Path_24" data-name="&lt;Path&gt;" cx="4.329" cy="4.295" rx="4.329" ry="4.295" fill="url(#linear-gradient)"/>
      </g>
    </g>
    <g id="_Group_50" data-name="&lt;Group&gt;" transform="translate(92.009 289.973)">
      <g id="_Group_51" data-name="&lt;Group&gt;">
        <ellipse id="_Path_25" data-name="&lt;Path&gt;" cx="4.329" cy="4.295" rx="4.329" ry="4.295" fill="url(#linear-gradient)"/>
      </g>
    </g>
    <g id="_Group_52" data-name="&lt;Group&gt;" transform="translate(126.845 220.268)">
      <g id="_Group_53" data-name="&lt;Group&gt;">
        <ellipse id="_Path_26" data-name="&lt;Path&gt;" cx="4.329" cy="4.295" rx="4.329" ry="4.295" fill="url(#linear-gradient)"/>
      </g>
    </g>
    <g id="_Group_54" data-name="&lt;Group&gt;" transform="translate(126.845 245.561)">
      <g id="_Group_55" data-name="&lt;Group&gt;">
        <ellipse id="_Path_27" data-name="&lt;Path&gt;" cx="4.329" cy="4.295" rx="4.329" ry="4.295" fill="url(#linear-gradient)"/>
      </g>
    </g>
    <g id="_Group_56" data-name="&lt;Group&gt;" transform="translate(93.092 147.302)">
      <g id="_Group_57" data-name="&lt;Group&gt;">
        <ellipse id="_Path_28" data-name="&lt;Path&gt;" cx="4.329" cy="4.295" rx="4.329" ry="4.295" fill="url(#linear-gradient)"/>
      </g>
    </g>
    <g id="_Group_58" data-name="&lt;Group&gt;" transform="translate(125.927 156.248)">
      <g id="_Group_59" data-name="&lt;Group&gt;">
        <ellipse id="_Path_29" data-name="&lt;Path&gt;" cx="4.329" cy="4.295" rx="4.329" ry="4.295" fill="url(#linear-gradient-17)"/>
      </g>
    </g>
    <g id="_Group_60" data-name="&lt;Group&gt;" transform="translate(104.244 125.465)">
      <g id="_Group_61" data-name="&lt;Group&gt;">
        <ellipse id="_Path_30" data-name="&lt;Path&gt;" cx="3.464" cy="3.436" rx="3.464" ry="3.436" fill="url(#linear-gradient)"/>
      </g>
    </g>
    <g id="_Group_62" data-name="&lt;Group&gt;" transform="translate(71.441 126.902)">
      <g id="_Group_63" data-name="&lt;Group&gt;">
        <ellipse id="_Path_31" data-name="&lt;Path&gt;" cx="4.329" cy="4.295" rx="4.329" ry="4.295" fill="url(#linear-gradient)"/>
      </g>
    </g>
    <g id="_Group_64" data-name="&lt;Group&gt;" transform="translate(41.639 144.94)">
      <g id="_Group_65" data-name="&lt;Group&gt;">
        <ellipse id="_Path_32" data-name="&lt;Path&gt;" cx="3.464" cy="3.436" rx="3.464" ry="3.436" fill="url(#linear-gradient)"/>
      </g>
    </g>
    <g id="_Group_66" data-name="&lt;Group&gt;" transform="translate(107.426 53.802)">
      <g id="_Group_67" data-name="&lt;Group&gt;" transform="translate(0 0)">
        <path id="_Path_33" data-name="&lt;Path&gt;" d="M276.24,149.1" transform="translate(-276.24 -149.1)" fill="#fff"/>
      </g>
    </g>
  </g>
  <g id="_Group_68" data-name="&lt;Group&gt;" transform="translate(2.388 2.495)">
    <g id="_Group_69" data-name="&lt;Group&gt;" transform="translate(94.168 126.341)">
      <path id="_Path_34" data-name="&lt;Path&gt;" d="M241.478,342.271l-1.728-.763,10.008-22.378,1.724.763Z" transform="translate(-239.75 -319.13)" fill="url(#linear-gradient-33)"/>
    </g>
    <g id="_Group_70" data-name="&lt;Group&gt;" transform="translate(116.451 221.217)">
      <path id="_Path_35" data-name="&lt;Path&gt;" d="M295.849,561.141l-.769-1.7,11.949-5.3.769,1.7Z" transform="translate(-295.08 -554.141)" fill="url(#linear-gradient)"/>
    </g>
    <g id="_Group_71" data-name="&lt;Group&gt;" transform="translate(85.489 291.285)">
      <path id="_Path_36" data-name="&lt;Path&gt;" d="M219.807,740.986l-1.607-.981,7.656-12.3,1.611.981Z" transform="translate(-218.2 -727.7)" fill="url(#linear-gradient-35)"/>
    </g>
    <g id="_Group_72" data-name="&lt;Group&gt;">
      <g id="_Group_73" data-name="&lt;Group&gt;">
        <g id="_Group_74" data-name="&lt;Group&gt;" transform="translate(0 98.372)">
          <path id="_Compound_Path_" data-name="&lt;Compound Path&gt;" d="M15.43,335.078l19.827-33.2,29.657-26.782.246-.052,43.56-9.362L154.877,281.8,144,326.5l-33.479-9.124L69.147,332.6Zm21.2-31.893-17.8,29.875,50.064-2.3,41.522-15.317,32.191,8.768,10.032-41.178-44.047-15.393-42.787,9.193Z" transform="translate(-15.43 -265.68)" fill="url(#linear-gradient-36)"/>
        </g>
        <g id="_Group_75" data-name="&lt;Group&gt;" transform="translate(20.552)">
          <path id="_Path_37" data-name="&lt;Path&gt;" d="M57.266,144.394l-.306-1.845,52.275-8.526,20.519-30.343,13.713,27.2,29.786-9.737L153.391,92.1l-24.978-28.11-3.48-47.605L155.759,6.18l14.559,16.051L165.2,48.755l-1.853-.355,4.946-25.607-13.1-14.449-28.26,9.362,3.331,45.518,24.627,27.735,21.341,31.183-33.713,11.021L129.517,107.39l-19.17,28.349-.4.065Z" transform="translate(-56.96 -6.18)" fill="url(#linear-gradient)"/>
        </g>
        <g id="_Group_76" data-name="&lt;Group&gt;" transform="translate(1.514 127.544)">
          <path id="_Compound_Path_2" data-name="&lt;Compound Path&gt;" d="M20.048,376.434l-.858-1.667,39.2-19.782,2.163.141L91.2,337.94,115.254,360.6,61.96,357.08,72.15,374.3l-1.611.949L59.685,356.939l-.9-.061Zm43.934-21.11,46.182,3.056L90.913,340.241Z" transform="translate(-19.19 -337.94)" fill="url(#linear-gradient-36)"/>
        </g>
        <g id="_Group_77" data-name="&lt;Group&gt;" transform="translate(93.229 99.357)">
          <path id="_Path_38" data-name="&lt;Path&gt;" d="M246.92,268.12" transform="translate(-246.92 -268.12)" fill="#fff"/>
        </g>
        <g id="_Group_78" data-name="&lt;Group&gt;" transform="translate(25.811 107.435)">
          <path id="_Path_39" data-name="&lt;Path&gt;" d="M104.957,371.5a2.867,2.867,0,0,1-3.375-2.063l-3.415,1.421L181.553,403.4v21.643l-10.37-17.763-88.429-29.83,27.036-31.619,35.5,5.382-13.443,5.6.346-.032a3.1,3.1,0,0,1,2.485.884l14.18-5.914.866.133v-.456L183.083,339.2l-23.637-32.382L102.915,288.13,95.5,326.4l1.853.355,7.016-36.173,53.882,17.82,21.824,29.874L149.624,349.45l-.64-18.256-1.889.069.681,18.429-38.743-5.87L79.52,378.335l90.406,30.5,13.532,23.181V402.142Z" transform="translate(-79.52 -288.13)" fill="url(#linear-gradient-39)"/>
        </g>
        <g id="_Group_79" data-name="&lt;Group&gt;" transform="translate(93.124 172.005)">
          <rect id="_Path_40" data-name="&lt;Path&gt;" width="1.885" height="122.631" fill="url(#linear-gradient-40)"/>
        </g>
      </g>
      <g id="_Group_80" data-name="&lt;Group&gt;" transform="translate(100.849 19.935)">
        <path id="_Path_41" data-name="&lt;Path&gt;" d="M292.888,151.223,288.474,121.4,259.618,87.312,256.34,55.843l20.205-.283L284.1,78.592l-1.8.553-7.132-21.7-16.742.238,3.016,28.861L290.266,120.6l4.491,30.351Z" transform="translate(-256.34 -55.56)" fill="url(#linear-gradient)"/>
      </g>
      <g id="_Group_81" data-name="&lt;Group&gt;" transform="translate(91.058 3.173)">
        <path id="_Path_42" data-name="&lt;Path&gt;" d="M258.1,97.261,245.457,63.4,232.03,68.65l9.694-36.766L260.286,14.04l1.313,1.344L243.415,32.869,234.8,65.553l11.76-4.6L259.372,95.27l16.834-1.522.173,1.865Z" transform="translate(-232.03 -14.04)" fill="url(#linear-gradient)"/>
      </g>
      <g id="_Group_82" data-name="&lt;Group&gt;" transform="translate(88.203 8.45)">
        <path id="_Path_43" data-name="&lt;Path&gt;" d="M249.744,56.541l-15.3-13.6.189,2.685,13.729,12.2A3.064,3.064,0,0,1,249.744,56.541Z" transform="translate(-234.44 -42.94)" fill="url(#linear-gradient-17)"/>
      </g>
      <g id="_Group_83" data-name="&lt;Group&gt;" transform="translate(119.995 14.772)">
        <path id="_Path_44" data-name="&lt;Path&gt;" d="M314.234,65.552l13.556-5.139a3.014,3.014,0,0,1-.516-1.813L313.38,63.868A4.039,4.039,0,0,1,314.234,65.552Z" transform="translate(-313.38 -58.6)" fill="url(#linear-gradient)"/>
      </g>
      <g id="_Group_84" data-name="&lt;Group&gt;" transform="translate(80.857 177.071)">
        <path id="_Path_45" data-name="&lt;Path&gt;" d="M208.561,444.79l-1.861.3,4.547,27.783,1.977.42Z" transform="translate(-206.7 -444.79)" fill="url(#linear-gradient)"/>
        <path id="_Path_46" data-name="&lt;Path&gt;" d="M245.015,613.98l-17.942-11.171-1,1.587,12.388,7.715H219.739V514.691l-1.889-.731V613.98Z" transform="translate(-213.359 -486.036)" fill="url(#linear-gradient)"/>
      </g>
      <g id="_Group_85" data-name="&lt;Group&gt;" transform="translate(27.104 163.838)">
        <path id="_Path_47" data-name="&lt;Path&gt;" d="M73.878,446.249l-.648-1.76,19.106-6.9,8.6-25.575,1.792.589-8.888,26.435Z" transform="translate(-73.23 -412.01)" fill="url(#linear-gradient-36)"/>
      </g>
    </g>
  </g>
</svg>
