<svg id="logo" xmlns="http://www.w3.org/2000/svg" xmlns:xlink="http://www.w3.org/1999/xlink" width="26.403" height="56.341" viewBox="0 0 26.403 56.341">
  <defs>
    <linearGradient id="linear-gradient" y1="0.5" x2="1" y2="0.5" gradientUnits="objectBoundingBox">
      <stop offset="0" stop-color="#cba539"/>
      <stop offset="0.49" stop-color="#ede7a6"/>
      <stop offset="0.61" stop-color="#ece5a3"/>
      <stop offset="0.71" stop-color="#e9df99"/>
      <stop offset="0.79" stop-color="#e4d589"/>
      <stop offset="0.87" stop-color="#ddc772"/>
      <stop offset="0.94" stop-color="#d4b654"/>
      <stop offset="1" stop-color="#cba539"/>
    </linearGradient>
    <linearGradient id="linear-gradient-6" x1="0" y1="0.5" x2="1.001" y2="0.5" xlink:href="#linear-gradient"/>
    <linearGradient id="linear-gradient-17" x1="0" y1="0.5" x2="1" y2="0.5" xlink:href="#linear-gradient"/>
    <linearGradient id="linear-gradient-20" x1="0" y1="0.5" x2="1" y2="0.5" xlink:href="#linear-gradient"/>
    <linearGradient id="linear-gradient-33" x1="0" y1="0.5" x2="1" y2="0.5" xlink:href="#linear-gradient"/>
    <linearGradient id="linear-gradient-35" x1="0" y1="0.5" x2="1" y2="0.5" xlink:href="#linear-gradient"/>
    <linearGradient id="linear-gradient-36" x1="0" y1="0.5" x2="1" y2="0.5" xlink:href="#linear-gradient"/>
    <linearGradient id="linear-gradient-39" x1="0" y1="0.5" x2="1" y2="0.5" xlink:href="#linear-gradient"/>
    <linearGradient id="linear-gradient-40" x1="0" y1="0.5" x2="1.002" y2="0.5" xlink:href="#linear-gradient"/>
  </defs>
  <g id="_Group_" data-name="&lt;Group&gt;">
    <g id="_Group_2" data-name="&lt;Group&gt;" transform="translate(24.826 20.539)">
      <g id="_Group_3" data-name="&lt;Group&gt;">
        <ellipse id="_Path_" data-name="&lt;Path&gt;" cx="0.788" cy="0.779" rx="0.788" ry="0.779" fill="url(#linear-gradient)"/>
      </g>
    </g>
    <g id="_Group_4" data-name="&lt;Group&gt;" transform="translate(16.474 9.868)">
      <g id="_Group_5" data-name="&lt;Group&gt;">
        <ellipse id="_Path_2" data-name="&lt;Path&gt;" cx="0.788" cy="0.779" rx="0.788" ry="0.779" fill="url(#linear-gradient)"/>
      </g>
    </g>
    <g id="_Group_6" data-name="&lt;Group&gt;" transform="translate(18.765 8.963)">
      <g id="_Group_7" data-name="&lt;Group&gt;">
        <ellipse id="_Path_3" data-name="&lt;Path&gt;" cx="0.788" cy="0.779" rx="0.788" ry="0.779" fill="url(#linear-gradient)"/>
      </g>
    </g>
    <g id="_Group_8" data-name="&lt;Group&gt;" transform="translate(18.298 3.729)">
      <g id="_Group_9" data-name="&lt;Group&gt;">
        <ellipse id="_Path_4" data-name="&lt;Path&gt;" cx="0.63" cy="0.623" rx="0.63" ry="0.623" fill="url(#linear-gradient)"/>
      </g>
    </g>
    <g id="_Group_10" data-name="&lt;Group&gt;" transform="translate(21.083 15.155)">
      <g id="_Group_11" data-name="&lt;Group&gt;">
        <ellipse id="_Path_5" data-name="&lt;Path&gt;" cx="0.788" cy="0.779" rx="0.788" ry="0.779" fill="url(#linear-gradient)"/>
      </g>
    </g>
    <g id="_Group_12" data-name="&lt;Group&gt;" transform="translate(24.27 15.249)">
      <g id="_Group_13" data-name="&lt;Group&gt;">
        <ellipse id="_Path_6" data-name="&lt;Path&gt;" cx="0.63" cy="0.623" rx="0.63" ry="0.623" fill="url(#linear-gradient-6)"/>
      </g>
    </g>
    <g id="_Group_14" data-name="&lt;Group&gt;" transform="translate(15.942 1.643)">
      <g id="_Group_15" data-name="&lt;Group&gt;">
        <ellipse id="_Path_7" data-name="&lt;Path&gt;" cx="0.788" cy="0.779" rx="0.788" ry="0.779" fill="url(#linear-gradient)"/>
      </g>
    </g>
    <g id="_Group_16" data-name="&lt;Group&gt;" transform="translate(21.56)">
      <g id="_Group_17" data-name="&lt;Group&gt;">
        <ellipse id="_Path_8" data-name="&lt;Path&gt;" cx="0.788" cy="0.779" rx="0.788" ry="0.779" fill="url(#linear-gradient)"/>
      </g>
    </g>
    <g id="_Group_18" data-name="&lt;Group&gt;" transform="translate(23.837 2.635)">
      <g id="_Group_19" data-name="&lt;Group&gt;">
        <ellipse id="_Path_9" data-name="&lt;Path&gt;" cx="0.788" cy="0.779" rx="0.788" ry="0.779" fill="url(#linear-gradient)"/>
      </g>
    </g>
    <g id="_Group_20" data-name="&lt;Group&gt;" transform="translate(21.57 3.405)">
      <g id="_Group_21" data-name="&lt;Group&gt;">
        <ellipse id="_Path_10" data-name="&lt;Path&gt;" cx="0.788" cy="0.779" rx="0.788" ry="0.779" fill="url(#linear-gradient)"/>
      </g>
    </g>
    <g id="_Group_22" data-name="&lt;Group&gt;" transform="translate(22.92 6.794)">
      <g id="_Group_23" data-name="&lt;Group&gt;">
        <ellipse id="_Path_11" data-name="&lt;Path&gt;" cx="0.788" cy="0.779" rx="0.788" ry="0.779" fill="url(#linear-gradient)"/>
      </g>
    </g>
    <g id="_Group_24" data-name="&lt;Group&gt;" transform="translate(16.617 17.685)">
      <g id="_Group_25" data-name="&lt;Group&gt;">
        <ellipse id="_Path_12" data-name="&lt;Path&gt;" cx="0.788" cy="0.779" rx="0.788" ry="0.779" fill="url(#linear-gradient)"/>
      </g>
    </g>
    <g id="_Group_26" data-name="&lt;Group&gt;" transform="translate(8.735 19.372)">
      <g id="_Group_27" data-name="&lt;Group&gt;">
        <ellipse id="_Path_13" data-name="&lt;Path&gt;" cx="0.788" cy="0.779" rx="0.788" ry="0.779" fill="url(#linear-gradient)"/>
      </g>
    </g>
    <g id="_Group_28" data-name="&lt;Group&gt;" transform="translate(3.573 24.718)">
      <g id="_Group_29" data-name="&lt;Group&gt;">
        <ellipse id="_Path_14" data-name="&lt;Path&gt;" cx="0.63" cy="0.623" rx="0.63" ry="0.623" fill="url(#linear-gradient)"/>
      </g>
    </g>
    <g id="_Group_30" data-name="&lt;Group&gt;" transform="translate(0 29.623)">
      <g id="_Group_31" data-name="&lt;Group&gt;">
        <ellipse id="_Path_15" data-name="&lt;Path&gt;" cx="0.788" cy="0.779" rx="0.788" ry="0.779" fill="url(#linear-gradient)"/>
      </g>
    </g>
    <g id="_Group_32" data-name="&lt;Group&gt;" transform="translate(9.786 29.428)">
      <g id="_Group_33" data-name="&lt;Group&gt;">
        <ellipse id="_Path_16" data-name="&lt;Path&gt;" cx="0.788" cy="0.779" rx="0.788" ry="0.779" fill="url(#linear-gradient)"/>
      </g>
    </g>
    <g id="_Group_34" data-name="&lt;Group&gt;" transform="translate(16.821 30.472)">
      <g id="_Group_35" data-name="&lt;Group&gt;">
        <ellipse id="_Path_17" data-name="&lt;Path&gt;" cx="0.781" cy="0.772" rx="0.781" ry="0.772" fill="url(#linear-gradient-17)"/>
      </g>
    </g>
    <g id="_Group_36" data-name="&lt;Group&gt;" transform="translate(8.331 34.385)">
      <g id="_Group_37" data-name="&lt;Group&gt;">
        <ellipse id="_Path_18" data-name="&lt;Path&gt;" cx="0.63" cy="0.623" rx="0.63" ry="0.623" fill="url(#linear-gradient)"/>
      </g>
    </g>
    <g id="_Group_38" data-name="&lt;Group&gt;" transform="translate(14.339 31.69)">
      <g id="_Group_39" data-name="&lt;Group&gt;">
        <ellipse id="_Path_19" data-name="&lt;Path&gt;" cx="0.788" cy="0.779" rx="0.788" ry="0.779" fill="url(#linear-gradient)"/>
      </g>
    </g>
    <g id="_Group_40" data-name="&lt;Group&gt;" transform="translate(4.736 35.36)">
      <g id="_Group_41" data-name="&lt;Group&gt;">
        <ellipse id="_Path_20" data-name="&lt;Path&gt;" cx="0.788" cy="0.779" rx="0.788" ry="0.779" fill="url(#linear-gradient-20)"/>
      </g>
    </g>
    <g id="_Group_42" data-name="&lt;Group&gt;" transform="translate(20.868 40.923)">
      <g id="_Group_43" data-name="&lt;Group&gt;">
        <ellipse id="_Path_21" data-name="&lt;Path&gt;" cx="0.788" cy="0.779" rx="0.788" ry="0.779" fill="url(#linear-gradient)"/>
      </g>
    </g>
    <g id="_Group_44" data-name="&lt;Group&gt;" transform="translate(15.258 39.095)">
      <g id="_Group_45" data-name="&lt;Group&gt;">
        <ellipse id="_Path_22" data-name="&lt;Path&gt;" cx="0.788" cy="0.779" rx="0.788" ry="0.779" fill="url(#linear-gradient)"/>
      </g>
    </g>
    <g id="_Group_46" data-name="&lt;Group&gt;" transform="translate(15.428 54.784)">
      <g id="_Group_47" data-name="&lt;Group&gt;">
        <ellipse id="_Path_23" data-name="&lt;Path&gt;" cx="0.788" cy="0.779" rx="0.788" ry="0.779" fill="url(#linear-gradient-17)"/>
      </g>
    </g>
    <g id="_Group_48" data-name="&lt;Group&gt;" transform="translate(19.75 54.784)">
      <g id="_Group_49" data-name="&lt;Group&gt;">
        <ellipse id="_Path_24" data-name="&lt;Path&gt;" cx="0.788" cy="0.779" rx="0.788" ry="0.779" fill="url(#linear-gradient)"/>
      </g>
    </g>
    <g id="_Group_50" data-name="&lt;Group&gt;" transform="translate(16.748 52.567)">
      <g id="_Group_51" data-name="&lt;Group&gt;">
        <ellipse id="_Path_25" data-name="&lt;Path&gt;" cx="0.788" cy="0.779" rx="0.788" ry="0.779" fill="url(#linear-gradient)"/>
      </g>
    </g>
    <g id="_Group_52" data-name="&lt;Group&gt;" transform="translate(23.089 39.931)">
      <g id="_Group_53" data-name="&lt;Group&gt;">
        <ellipse id="_Path_26" data-name="&lt;Path&gt;" cx="0.788" cy="0.779" rx="0.788" ry="0.779" fill="url(#linear-gradient)"/>
      </g>
    </g>
    <g id="_Group_54" data-name="&lt;Group&gt;" transform="translate(23.089 44.516)">
      <g id="_Group_55" data-name="&lt;Group&gt;">
        <ellipse id="_Path_27" data-name="&lt;Path&gt;" cx="0.788" cy="0.779" rx="0.788" ry="0.779" fill="url(#linear-gradient)"/>
      </g>
    </g>
    <g id="_Group_56" data-name="&lt;Group&gt;" transform="translate(16.945 26.703)">
      <g id="_Group_57" data-name="&lt;Group&gt;">
        <ellipse id="_Path_28" data-name="&lt;Path&gt;" cx="0.788" cy="0.779" rx="0.788" ry="0.779" fill="url(#linear-gradient)"/>
      </g>
    </g>
    <g id="_Group_58" data-name="&lt;Group&gt;" transform="translate(22.922 28.325)">
      <g id="_Group_59" data-name="&lt;Group&gt;">
        <ellipse id="_Path_29" data-name="&lt;Path&gt;" cx="0.788" cy="0.779" rx="0.788" ry="0.779" fill="url(#linear-gradient-17)"/>
      </g>
    </g>
    <g id="_Group_60" data-name="&lt;Group&gt;" transform="translate(18.975 22.745)">
      <g id="_Group_61" data-name="&lt;Group&gt;">
        <ellipse id="_Path_30" data-name="&lt;Path&gt;" cx="0.63" cy="0.623" rx="0.63" ry="0.623" fill="url(#linear-gradient)"/>
      </g>
    </g>
    <g id="_Group_62" data-name="&lt;Group&gt;" transform="translate(13.004 23.005)">
      <g id="_Group_63" data-name="&lt;Group&gt;">
        <ellipse id="_Path_31" data-name="&lt;Path&gt;" cx="0.788" cy="0.779" rx="0.788" ry="0.779" fill="url(#linear-gradient)"/>
      </g>
    </g>
    <g id="_Group_64" data-name="&lt;Group&gt;" transform="translate(7.579 26.275)">
      <g id="_Group_65" data-name="&lt;Group&gt;">
        <ellipse id="_Path_32" data-name="&lt;Path&gt;" cx="0.63" cy="0.623" rx="0.63" ry="0.623" fill="url(#linear-gradient)"/>
      </g>
    </g>
    <g id="_Group_66" data-name="&lt;Group&gt;" transform="translate(19.554 9.753)">
      <g id="_Group_67" data-name="&lt;Group&gt;">
        <path id="_Path_33" data-name="&lt;Path&gt;" d="M276.24,149.1" transform="translate(-276.24 -149.1)" fill="#fff"/>
      </g>
    </g>
  </g>
  <g id="_Group_68" data-name="&lt;Group&gt;" transform="translate(0.435 0.452)">
    <g id="_Group_69" data-name="&lt;Group&gt;" transform="translate(17.141 22.903)">
      <path id="_Path_34" data-name="&lt;Path&gt;" d="M240.064,323.325l-.314-.138,1.822-4.057.314.138Z" transform="translate(-239.75 -319.13)" fill="url(#linear-gradient-33)"/>
    </g>
    <g id="_Group_70" data-name="&lt;Group&gt;" transform="translate(21.197 40.103)">
      <path id="_Path_35" data-name="&lt;Path&gt;" d="M295.22,555.409l-.14-.309,2.175-.96.14.309Z" transform="translate(-295.08 -554.14)" fill="url(#linear-gradient)"/>
    </g>
    <g id="_Group_71" data-name="&lt;Group&gt;" transform="translate(15.561 52.805)">
      <path id="_Path_36" data-name="&lt;Path&gt;" d="M218.492,730.109l-.293-.178,1.394-2.231.293.178Z" transform="translate(-218.2 -727.7)" fill="url(#linear-gradient-35)"/>
    </g>
    <g id="_Group_72" data-name="&lt;Group&gt;">
      <g id="_Group_73" data-name="&lt;Group&gt;">
        <g id="_Group_74" data-name="&lt;Group&gt;" transform="translate(0 17.833)">
          <path id="_Compound_Path_" data-name="&lt;Compound Path&gt;" d="M15.43,278.261l3.609-6.019,5.4-4.855.045-.009,7.929-1.7,8.4,2.922-1.979,8.1-6.094-1.654-7.532,2.759Zm3.86-5.782-3.24,5.416,9.113-.417L32.72,274.7l5.86,1.59,1.826-7.465-8.018-2.791L24.6,267.7Z" transform="translate(-15.43 -265.68)" fill="url(#linear-gradient-36)"/>
        </g>
        <g id="_Group_75" data-name="&lt;Group&gt;" transform="translate(3.741)">
          <path id="_Path_37" data-name="&lt;Path&gt;" d="M57.016,31.236,56.96,30.9l9.515-1.546,3.735-5.5,2.5,4.93,5.422-1.765-3.616-5.264-4.547-5.1-.633-8.63,5.611-1.85,2.65,2.91L76.662,13.9l-.337-.064.9-4.642L74.839,6.572,69.7,8.269l.606,8.252,4.483,5.028L78.669,27.2l-6.137,2-2.365-4.672-3.489,5.139-.073.012Z" transform="translate(-56.96 -6.18)" fill="url(#linear-gradient)"/>
        </g>
        <g id="_Group_76" data-name="&lt;Group&gt;" transform="translate(0.276 23.121)">
          <path id="_Compound_Path_2" data-name="&lt;Compound Path&gt;" d="M19.346,344.918l-.156-.3,7.135-3.586.394.026L32.3,337.94l4.378,4.109-9.7-.639,1.855,3.121-.293.172-1.976-3.319-.164-.011Zm8-3.827,8.406.554-3.5-3.288Z" transform="translate(-19.19 -337.94)" fill="url(#linear-gradient-36)"/>
        </g>
        <g id="_Group_77" data-name="&lt;Group&gt;" transform="translate(16.97 18.012)">
          <path id="_Path_38" data-name="&lt;Path&gt;" d="M246.92,268.12" transform="translate(-246.92 -268.12)" fill="#fff"/>
        </g>
        <g id="_Group_78" data-name="&lt;Group&gt;" transform="translate(4.698 19.476)">
          <path id="_Path_39" data-name="&lt;Path&gt;" d="M84.15,303.244a.522.522,0,0,1-.614-.374l-.622.258,15.178,5.9v3.923L96.2,309.73l-16.1-5.408,4.921-5.732,6.462.976-2.447,1.016.063-.006a.565.565,0,0,1,.452.16l2.581-1.072.158.024v-.083l6.072-2.218-4.3-5.87-10.29-3.387-1.35,6.937.337.064,1.277-6.557,9.808,3.23,3.973,5.416-5.542,2.026-.117-3.309-.344.012.124,3.341-7.052-1.064-5.372,6.257,16.456,5.529,2.463,4.2V308.8Z" transform="translate(-79.52 -288.13)" fill="url(#linear-gradient-39)"/>
        </g>
        <g id="_Group_79" data-name="&lt;Group&gt;" transform="translate(16.951 31.181)">
          <rect id="_Path_40" data-name="&lt;Path&gt;" width="0.343" height="22.231" fill="url(#linear-gradient-40)"/>
        </g>
      </g>
      <g id="_Group_80" data-name="&lt;Group&gt;" transform="translate(18.357 3.614)">
        <path id="_Path_41" data-name="&lt;Path&gt;" d="M262.993,72.9l-.8-5.407-5.253-6.179-.6-5.7,3.678-.051,1.375,4.175-.328.1-1.3-3.933-3.047.043.549,5.232,5.247,6.172.817,5.5Z" transform="translate(-256.34 -55.56)" fill="url(#linear-gradient)"/>
      </g>
      <g id="_Group_81" data-name="&lt;Group&gt;" transform="translate(16.575 0.575)">
        <path id="_Path_42" data-name="&lt;Path&gt;" d="M236.775,29.126l-2.3-6.139-2.444.952,1.765-6.665,3.379-3.235.239.244-3.31,3.17-1.568,5.925,2.141-.834,2.332,6.221,3.064-.276.032.338Z" transform="translate(-232.03 -14.04)" fill="url(#linear-gradient)"/>
      </g>
      <g id="_Group_82" data-name="&lt;Group&gt;" transform="translate(16.055 1.532)">
        <path id="_Path_43" data-name="&lt;Path&gt;" d="M237.226,45.406,234.44,42.94l.034.487,2.5,2.211A.557.557,0,0,1,237.226,45.406Z" transform="translate(-234.44 -42.94)" fill="url(#linear-gradient-17)"/>
      </g>
      <g id="_Group_83" data-name="&lt;Group&gt;" transform="translate(21.842 2.678)">
        <path id="_Path_44" data-name="&lt;Path&gt;" d="M313.535,59.86,316,58.929a.545.545,0,0,1-.094-.329l-2.529.955A.731.731,0,0,1,313.535,59.86Z" transform="translate(-313.38 -58.6)" fill="url(#linear-gradient)"/>
      </g>
      <g id="_Group_84" data-name="&lt;Group&gt;" transform="translate(14.718 32.1)">
        <path id="_Path_45" data-name="&lt;Path&gt;" d="M207.039,444.79l-.339.054.828,5.037.36.076Z" transform="translate(-206.7 -444.79)" fill="url(#linear-gradient)"/>
        <path id="_Path_46" data-name="&lt;Path&gt;" d="M222.795,532.092l-3.266-2.025-.183.288,2.255,1.4h-3.407v-17.66l-.344-.132v18.132Z" transform="translate(-217.033 -508.898)" fill="url(#linear-gradient)"/>
      </g>
      <g id="_Group_85" data-name="&lt;Group&gt;" transform="translate(4.934 29.701)">
        <path id="_Path_47" data-name="&lt;Path&gt;" d="M73.348,418.217l-.118-.319,3.478-1.251,1.565-4.636.326.107-1.618,4.792Z" transform="translate(-73.23 -412.01)" fill="url(#linear-gradient-36)"/>
      </g>
    </g>
  </g>
</svg>
