<svg xmlns="http://www.w3.org/2000/svg" xmlns:xlink="http://www.w3.org/1999/xlink" version="1.1" x="0px" y="0px" viewBox="0 0 360 360" style="enable-background:new 0 0 360 360;" xml:space="preserve">
<style type="text/css">
	.st0{display:none;}
	.st1{display:inline;fill:#F2633A;}
	.st2{font-family:'Montez-Regular';}
	.st3{font-size:90px;}
	.st4{display:inline;}
	.st5{fill:#F2633A;}
</style>
<g id="Guides" class="st0">
</g>
<g id="Editables" class="st0">
	<path id="Table_M" class="st1" d="M237.9,209.7c-0.3,0-0.7,0-1,0.1c-2.1-6.1-2.1-12.8,0-19c0-0.1,0.1-0.2,0.1-0.3   c5.2-15.7,1.9-32.9-8.3-45.9l0,0c-3.3-4.2-8.2-6.6-13.5-6.6l-5.8,0c-5.3,0-10.5,0.9-15.5,2.8c-9.1,3.5-19.2,3.5-28.4,0   c-4.9-1.9-10.2-2.8-15.5-2.8h-5.8c-5.3,0-10.3,2.4-13.5,6.6c-10.2,13-13.5,30.2-8.3,45.9c0,0.1,0.1,0.2,0.1,0.3   c2.1,6.2,2.1,12.8,0,19c-0.3,0-0.7-0.1-1-0.1c-4,0-7.2,3.2-7.2,7.2s3.2,7.2,7.2,7.2c2.6,0,4.9-1.4,6.1-3.5   c3.1-3.8,4.8-8.6,4.8-13.5v-5.7c0-8.1,2.9-16,8.2-22.1h0c6.7-7.9,18.6-8.7,26.3-1.9l12.7,11.2l12.7-11.2c7.8-6.8,19.6-6,26.3,1.9   l0,0c5.3,6.2,8.2,14,8.2,22.1v5.7c0,4.9,1.7,9.7,4.8,13.5c1.3,2.1,3.5,3.5,6.2,3.5c4,0,7.2-3.2,7.2-7.2S241.8,209.7,237.9,209.7z"/>
	<path id="Dish" class="st1" d="M162.2,138l11.1,2.5c4.4,1,9,1,13.5,0l11.2-2.5"/>
	<path id="Spiral" class="st1" d="M236.9,209.8c3.4-0.2,6.3-1.2,8.8-2.4c5.2-2.6,9.3-7,11.8-12.3c19.7-41.2-1.4-92.6-46.6-108.2   c-46.7-16.1-98.3,3.9-120.5,46.8c-21.6,41.8-9.1,92.8,30.2,122.7c50,38,122.3,28.6,160-20.9c8.9-11.7,15.1-24.7,18.7-38.2   c0.6-2.4,2.2-4.5,4.3-5.8c2.6-1.6,6.1-2.6,8.9,1.2c1.9,2.5,2.3,5.7,1.4,8.7c-12.4,42.5-40.9,76.3-87.8,89.1   c-53.2,14.4-99.6,0.6-135.7-41.3c-37.7-43.6-33.4-110,1.2-146c39.3-40.9,102.9-49.5,148.7-18c40.7,28.1,51.2,79.4,30.9,118.9   c-4.5,8.7-12.1,15.6-21.4,18.8c-5.3,1.8-11,2.5-15.9-0.1C231.2,215.7,231.6,210.8,236.9,209.8z"/>
	<text transform="matrix(1 0 0 1 70.1807 249.8672)" class="st1 st2 st3">Masam</text>
	<g class="st4">
		<path class="st5" d="M188.2,126.7c7.5-5.6,7.9-9.8,1.3-16.5c-2.9-3-6-5.8-8.8-8.9c-1.7-1.8-2.5-3.3-2.3-6.6    c0.1,4.5,3.6,6.9,6.4,9.7c2.5,2.5,5.2,4.8,7.6,7.3c4.9,5,4.5,9.9-1.1,14.1c-2.6,2-5.2,3.9-7.8,5.8    C183.3,131.3,185.7,128.5,188.2,126.7z"/>
		<path class="st5" d="M180,137.6c-2.6-3.2-1.2-8.7,2.5-11.3c2.1-1.4,4.2-2.7,6.2-4.2c2.2-1.6,2.6-3.5,1.1-5.7    c-1.5-2-3.4-3.7-5.2-5.4c-1.4-1.4-3-2.6-4.2-4.2c-1.9-2.4-2.4-3.3-2.3-5.3c0.6,3,5.2,6.9,8.4,10c1.4,1.4,2.9,2.7,4.1,4.3    c2.1,2.9,1.5,6-1.5,8.1c-1.2,0.8-2.5,1.5-3.7,2.2C179.7,129.4,178.8,131.3,180,137.6z"/>
		<path class="st5" d="M173.1,132c-0.5-2-0.1-3.9,1.4-5.2c1.7-1.4,3.5-2.7,5.4-3.7c6.6-3.8,6-8.1-0.1-13.3c3,1.1,5.5,4.1,6.1,6.7    c0.5,2.3-0.7,4.1-2.5,5.5c-1.8,1.4-3.8,2.8-5.7,4.1c-4.4,3.2-4.8,6-1.3,10.2c0.6,0.7,1.4,1.2,2.1,1.8    C178.2,138.1,173.8,134.8,173.1,132z"/>
	</g>
</g>
<g id="Merged_version">
	<g>
		
		<g>
			<path class="st5" d="M176.8,127.9c2.1,0.5,4.3,0.5,6.5,0l5.4-1.2h-8.2h-9L176.8,127.9z"/>
			<path class="st5" d="M243.4,152.9c-1.4-1.8-3-1.3-4.3-0.5c-1,0.7-1.7,1.7-2,2.9c-1.7,6.5-4.7,12.7-8.9,18.2     c-18.1,23.7-52.7,28.2-76.7,10c-18.8-14.3-24.8-38.8-14.5-58.8c10.6-20.5,35.4-30.1,57.8-22.4c21.8,7.5,31.8,32.3,22.3,52     c-1.2,2.5-3.1,4.5-5.6,5.7c0,0-0.1,0-0.1,0.1c-2.1,1-4.7-0.5-4.8-2.8c-0.1-1.7,0.2-3.5,0.7-5.2c0-0.1,0-0.1,0.1-0.2     c2.5-7.5,0.9-15.8-4-22l0,0c-1.7-2-4.2-3.2-6.9-3.2l-2.6,0c-2.6,0-5.1,0.6-7.5,1.4c-4.2,1.5-8.8,1.5-13,0     c-2.4-0.9-4.9-1.4-7.5-1.4h-3c-2.5,0-4.9,1.1-6.4,3.1c-4.9,6.2-6.5,14.5-4,22.1c0,0.1,0,0.1,0.1,0.2c1,3,1,6.2,0,9.1     c-0.8-0.1-1.7,0-2.9,1.4c-1.6,2-0.6,5.1,2,5.4c0.1,0,0.3,0,0.4,0c1.3,0,2.3-0.7,2.9-1.7c1.5-1.8,2.3-4.1,2.3-6.5v-2.7     c0-3.9,1.4-7.7,3.9-10.6c3.2-3.8,8.9-4.2,12.6-0.9l6.1,5.4l6.3-5.6c3.7-3.3,9.3-2.8,12.4,1.1l0,0c2.5,3.2,3.9,7.1,3.9,11.2v2.2     c0,2.4,0.8,4.6,2.3,6.5c0.2,0.4,0.6,0.7,0.9,1c0,0,0,0,0,0c0,0,0,0,0,0c0.5,0.4,1.1,0.6,1.7,0.6c1.9,0.4,4,0.1,5.9-0.6     c4.5-1.5,8.1-4.8,10.3-9c9.7-18.9,4.7-43.6-14.8-57c-16.6-11.4-38-11.9-55.6-2.9c-0.3-0.2-0.6-0.4-0.9-0.7c-0.5-0.4-1-1-1.4-1.6     c-0.9-1.1-1.6-2.4-2.2-3.8c0.1,0.7,0.2,1.5,0.4,2.2c0.2,0.7,0.4,1.5,0.8,2.2c0.4,0.8,0.8,1.5,1.3,2.2c-1,0.2-1.9,0.4-2.9,0.7     c-1.6,0.5-3.2,1.1-4.7,1.9c-1.5,0.8-3,1.8-4.2,3.1c-0.4,0.4-0.8,0.9-1.2,1.4c-0.2-0.3-0.4-0.7-0.6-1c-0.5-0.7-1-1.3-1.7-2     l-0.5-0.5c-0.1-0.1-0.3-0.2-0.4-0.3c0.1-0.1,0.1-0.3,0.2-0.4c0.4-0.6,0.7-1.2,1.2-1.8c0.9-1.2,1.9-2.2,3.1-3.2     c0.6-0.5,1.2-0.9,1.8-1.3c0.6-0.5,1.3-0.8,2-1.2c0.7-0.4,1.4-0.7,2.1-1.1c0.7-0.3,1.4-0.6,2.2-1c-0.8,0.1-1.6,0.2-2.4,0.3     c-0.8,0.2-1.6,0.3-2.4,0.6c-1.6,0.5-3.1,1.1-4.5,2c-1.4,0.9-2.8,1.9-3.9,3.1c-0.3,0.3-0.6,0.6-0.8,1c-0.3,0.3-0.5,0.7-0.8,1     c-0.2,0.4-0.5,0.7-0.7,1.1c-0.1,0.2-0.2,0.3-0.3,0.5c-0.5-0.8-1.2-1.5-1.8-2.1c-1-0.9-2-1.6-3-2.3c-2-1.4-4-2.6-5.6-4.1     c-0.8-0.7-1.4-1.5-1.9-2.4c-0.4-0.8-0.8-1.9-0.8-2.7c0-0.1,0-0.2,0-0.3c0-0.1,0-0.2,0-0.3c0-0.2,0.1-0.4,0.2-0.6     c0.2-0.3,0.5-0.7,0.9-1c0.6-0.4,1.3-0.7,2.1-0.9c0,0.1,0,0.2,0,0.3c0.1,0.9,0.5,1.7,0.9,2.3c0.9,1.3,2,2.2,3.2,2.9     c1.2,0.7,2.5,1.1,3.8,1.4c-1-0.9-1.9-1.8-2.7-2.7c-0.8-0.9-1.5-1.9-1.9-2.8c-0.4-0.9-0.3-1.7,0-2.5c0.2-0.4,0.4-0.8,0.7-1     l0.1-0.1c0,0,0,0,0,0l0.1-0.1l0.3-0.3c0.2-0.2,0.5-0.3,0.7-0.5c0.9-0.6,1.9-1.1,2.7-1.2c0.9-0.2,1.7,0,2.6,0.5     c0.9,0.5,1.8,1.3,2.5,2.2c0.8,0.9,1.5,2,2.3,3.1c0-1.3-0.3-2.7-0.8-3.9c-0.5-1.3-1.2-2.5-2.4-3.6c-0.8-0.8-2-1.3-3.2-1.5     c0.4-0.3,0.7-0.5,1.1-0.7c1.1-0.6,2.4-1,3.6-1.1c1.2-0.2,2.5-0.1,3.7,0.1c1.1,0.2,2.1,0.6,2.9,1.3c1.7,1.4,2.7,3.8,3.4,6.3     c0.2,0.6,0.3,1.3,0.4,1.9c0.1,0.3,0.1,0.7,0.2,1.1c0.1,0.4,0.2,0.7,0.3,1.1c0.5,1.4,1.2,2.7,2.1,3.9c-0.2-1.4-0.4-2.8-0.4-4.2     c0-0.3,0-0.7,0-1c0-0.3,0-0.6,0.1-1c0-0.8,0-1.5-0.1-2.3c-0.1-1.5-0.5-3-1.1-4.5c-0.6-1.5-1.5-2.9-2.8-4c-0.7-0.6-1.4-1-2.2-1.3     c-0.8-0.3-1.7-0.5-2.5-0.6c-1.6-0.1-3.2,0.1-4.7,0.6c-1.5,0.5-2.9,1.3-4,2.4c-0.6,0.6-1,1.2-1.4,2c0,0-0.1,0-0.1,0     c-1.7,0.1-3.1,0.8-4.3,1.6c-0.3,0.2-0.6,0.4-0.9,0.6l-0.4,0.3l-0.1,0.1l-0.2,0.1c-0.1,0.1-0.2,0.2-0.2,0.2     c-0.6,0.6-1,1.4-1.3,2.2c-0.2,0.5-0.3,1.1-0.3,1.7c-0.2,0-0.4-0.1-0.6-0.1c-0.7-0.1-1.3,0-2.1,0.1c-0.7,0.1-1.4,0.6-2,1.1     c-0.3,0.3-0.6,0.7-0.7,1c-0.1,0.2-0.2,0.4-0.3,0.6c-0.1,0.2-0.1,0.4-0.1,0.6c-0.1,0.4-0.1,0.8-0.1,1.2c0,0.2,0,0.4,0,0.6l0.1,0.5     c0.1,0.7,0.3,1.4,0.5,2.1c0.6,1.4,1.4,2.6,2.5,3.5c2,1.9,4.4,3,6.7,4l3.4,1.4c0.9,0.4,1.7,0.7,2.5,1.2c0,0.1-0.1,0.2-0.1,0.3     l-0.6,1.6l2.1,0.4c0,0,0.4,0.2,0.8,0.6c0.4,0.4,0.8,0.9,1.1,1.4c0.3,0.6,0.7,1.1,1,1.8c0.3,0.6,0.6,1.3,0.9,1.8l0.1,0.3     c-15.8,17.4-17.5,48.5,0.2,69.1c17.3,20.1,39.6,26.7,65.1,19.8c22.5-6.1,36.2-22.4,42.1-42.8C244.6,155.6,244.3,154,243.4,152.9z     "/>
			<path class="st5" d="M184.3,114.6c2.9,2.9,2.7,4.7-0.6,7.2c-1.1,0.8-2.1,2-2.1,2.1c1.1-0.8,2.3-1.7,3.4-2.5     c2.4-1.8,2.6-3.9,0.5-6.1c-1.1-1.1-2.2-2.1-3.3-3.1c-1.2-1.2-2.7-2.2-2.8-4.2c-0.1,1.5,0.3,2.1,1,2.9     C181.7,112.1,183.1,113.4,184.3,114.6z"/>
			<path class="st5" d="M180.4,113.2c0.5,0.7,1.2,1.2,1.8,1.8c0.8,0.8,1.6,1.5,2.2,2.4c0.7,0.9,0.5,1.8-0.5,2.5     c-0.9,0.6-1.8,1.2-2.7,1.8c-1.6,1.1-2.2,3.5-1.1,4.9c-0.5-2.8-0.1-3.6,2.3-5c0.5-0.3,1.1-0.6,1.6-1c1.3-0.9,1.6-2.2,0.7-3.5     c-0.5-0.7-1.1-1.3-1.8-1.9c-1.4-1.3-3.4-3-3.6-4.3C179.4,111.8,179.6,112.2,180.4,113.2z"/>
			<path class="st5" d="M180.2,120.2c-0.8,0.5-1.6,1-2.3,1.6c-0.7,0.6-0.9,1.4-0.6,2.3c0.3,1.2,2.2,2.7,2.3,2.6     c-0.3-0.3-0.7-0.5-0.9-0.8c-1.5-1.8-1.3-3.1,0.6-4.4c0.8-0.6,1.7-1.2,2.5-1.8c0.8-0.6,1.3-1.4,1.1-2.4c-0.2-1.1-1.3-2.4-2.6-2.9     C182.8,116.7,183,118.6,180.2,120.2z"/>
		</g>
	</g>
</g>
</svg>