<svg xmlns="http://www.w3.org/2000/svg" width="26.957" height="29.223" viewBox="0 0 26.957 29.223">
    <defs>
        <style>
            .cls-2{fill:#004fac}
        </style>
    </defs>
    <g id="Resume" transform="translate(-55.419 -48)">
        <path id="Path_644" fill="#57a4ff" d="M211.053 101.482a5.532 5.532 0 0 1-1.877 4.158 3.927 3.927 0 0 0 .028-.461 3.7 3.7 0 0 0-3.7-3.7 1.848 1.848 0 0 0 1.829-1.584 1.66 1.66 0 0 0 .02-.264 1.849 1.849 0 1 0-3.7 0 1.664 1.664 0 0 0 .02.264 1.848 1.848 0 0 0 1.829 1.584 3.7 3.7 0 0 0-3.7 3.7 3.926 3.926 0 0 0 .028.461 5.548 5.548 0 1 1 9.215-4.158z" transform="translate(-136.62 -43.182)"/>
        <g id="Group_175" transform="translate(55.419 48)">
            <path id="Path_645" d="M82.376 76.521l-.02-27.729a.792.792 0 0 0-.792-.792H56.212a.792.792 0 0 0-.792.792v27.729zM57 49.584h23.771l.216 27.638H56.974zm-1.581 26.937z" class="cls-2" transform="translate(-55.419 -48)"/>
            <path id="Path_646" d="M52.753 360h-3.961a.792.792 0 0 0 0 1.585h3.961a.792.792 0 1 0 0-1.585z" class="cls-2" transform="translate(-43.201 -335.418)"/>
            <path id="Path_647" d="M113.585 360h-.792a.792.792 0 1 0 0 1.585h.792a.792.792 0 0 0 0-1.585z" class="cls-2" transform="translate(-100.863 -335.418)"/>
            <path id="Path_648" d="M194.1 99a.8.8 0 0 0 .106.092 6.319 6.319 0 0 0 8.258 0 .8.8 0 0 0 .118-.1A6.338 6.338 0 1 0 194.1 99zm1.335-.948v-.063a2.9 2.9 0 0 1 5.81 0v.063a4.739 4.739 0 0 1-5.811.005zm1.847-5.609a1.056 1.056 0 1 1 1.056 1.056 1.056 1.056 0 0 1-1.058-1.051zm1.056-2.9a4.75 4.75 0 0 1 4.224 6.93 4.513 4.513 0 0 0-2.113-2.44 2.641 2.641 0 1 0-4.222 0 4.513 4.513 0 0 0-2.113 2.44 4.75 4.75 0 0 1 4.224-6.93z" class="cls-2" transform="translate(-184.868 -83.998)"/>
            <path id="Path_649" d="M168.792 233.585h15.845a.792.792 0 0 0 0-1.585h-15.845a.792.792 0 0 0 0 1.585z" class="cls-2" transform="translate(-163.247 -213.778)"/>
            <path id="Path_650" d="M168.792 265.585h12.676a.792.792 0 0 0 0-1.585h-12.676a.792.792 0 0 0 0 1.585z" class="cls-2" transform="translate(-163.247 -242.609)"/>
        </g>
    </g>
</svg>
